<svg width="20" height="19" viewBox="0 0 20 19" fill="none" xmlns="http://www.w3.org/2000/svg">
<g clip-path="url(#clip0_9616_16376)">
<path d="M7.82817 17.4054C8.2629 17.4054 8.61532 17.0529 8.61532 16.6182C8.61532 16.1835 8.2629 15.8311 7.82817 15.8311C7.39344 15.8311 7.04102 16.1835 7.04102 16.6182C7.04102 17.0529 7.39344 17.4054 7.82817 17.4054Z" stroke="#FF8B00" stroke-width="1.18864" stroke-linecap="round" stroke-linejoin="round"/>
<path d="M16.4864 17.4054C16.9211 17.4054 17.2735 17.0529 17.2735 16.6182C17.2735 16.1835 16.9211 15.8311 16.4864 15.8311C16.0516 15.8311 15.6992 16.1835 15.6992 16.6182C15.6992 17.0529 16.0516 17.4054 16.4864 17.4054Z" stroke="#FF8B00" stroke-width="1.18864" stroke-linecap="round" stroke-linejoin="round"/>
<path d="M1.53125 0.874023H4.67987L6.78944 11.414C6.86142 11.7764 7.05858 12.102 7.34639 12.3337C7.6342 12.5653 7.99434 12.6884 8.36375 12.6813H16.0149C16.3843 12.6884 16.7444 12.5653 17.0323 12.3337C17.3201 12.102 17.5172 11.7764 17.5892 11.414L18.8486 4.8098H5.46702" stroke="#FF8B00" stroke-width="1.18864" stroke-linecap="round" stroke-linejoin="round"/>
</g>
<defs>
<clipPath id="clip0_9616_16376">
<rect width="18.8917" height="18.8917" fill="white" transform="translate(0.744141 0.0878906)"/>
</clipPath>
</defs>
</svg>
