<svg width="16" height="16" viewBox="0 0 16 16" fill="none" xmlns="http://www.w3.org/2000/svg">
                    <g clip-path="url(#clip0_5869_1726)">
                    <path d="M13.7813 6.6875C13.7813 11.2813 7.875 15.2188 7.875 15.2188C7.875 15.2188 1.96875 11.2813 1.96875 6.6875C1.96875 5.12107 2.59101 3.61879 3.69865 2.51115C4.80629 1.40351 6.30857 0.78125 7.875 0.78125C9.44144 0.78125 10.9437 1.40351 12.0513 2.51115C13.159 3.61879 13.7813 5.12107 13.7813 6.6875Z" stroke="#FF8B00" stroke-width="1.3125" stroke-linecap="round" stroke-linejoin="round"/>
                    <path d="M7.875 8.65625C8.96231 8.65625 9.84375 7.77481 9.84375 6.6875C9.84375 5.60019 8.96231 4.71875 7.875 4.71875C6.78769 4.71875 5.90625 5.60019 5.90625 6.6875C5.90625 7.77481 6.78769 8.65625 7.875 8.65625Z" stroke="#FF8B00" stroke-width="1.3125" stroke-linecap="round" stroke-linejoin="round"/>
                    </g>
                    <defs>
                    <clipPath id="clip0_5869_1726">
                    <rect width="15.75" height="15.75" fill="white" transform="translate(0 0.125)"/>
                    </clipPath>
                    </defs>
                </svg> 