<svg width="20" height="15" viewBox="0 0 20 15" fill="none" xmlns="http://www.w3.org/2000/svg">
<g clip-path="url(#clip0_10616_13203)">
<path d="M5.08382 14.7007V7.59213L2.87924 5.57527L0.902344 4.45605V13.4462C0.902344 14.1403 1.46472 14.7007 2.15682 14.7007H5.08382Z" fill="#4285F4"/>
<path d="M15.1191 14.7006H18.0461C18.7403 14.7006 19.3006 14.1382 19.3006 13.4461V4.45605L17.0615 5.73798L15.1191 7.59205V14.7006Z" fill="#34A853"/>
<path d="M5.08416 7.59213L4.78418 4.81461L5.08416 2.15625L10.1019 5.91959L15.1196 2.15625L15.4552 4.67109L15.1196 7.59213L10.1019 11.3555L5.08416 7.59213Z" fill="#EA4335"/>
<path d="M15.1191 2.15641V7.59228L19.3006 4.45621V2.78361C19.3006 1.23232 17.5298 0.347971 16.29 1.27831L15.1191 2.15641Z" fill="#FBBC04"/>
<path d="M0.902344 4.45625L2.82548 5.89865L5.08382 7.59232V2.15644L3.91293 1.27835C2.67104 0.347932 0.902344 1.23235 0.902344 2.78357V4.45617V4.45625Z" fill="#C5221F"/>
</g>
<defs>
<clipPath id="clip0_10616_13203">
<rect width="18.3984" height="13.8707" fill="white" transform="translate(0.902344 0.898438)"/>
</clipPath>
</defs>
</svg>
