<svg width="22" height="22" viewBox="0 0 22 22" fill="none" xmlns="http://www.w3.org/2000/svg">
<g clip-path="url(#clip0_10616_13198)">
<path d="M21.4277 10.8198C21.4277 5.11687 16.8045 0.493652 11.1016 0.493652C5.39861 0.493652 0.775391 5.11679 0.775391 10.8198C0.775391 15.9739 4.55154 20.2459 9.4881 21.0205V13.8047H6.86622V10.8198H9.4881V8.54484C9.4881 5.95684 11.0298 4.52731 13.3884 4.52731C14.5182 4.52731 15.6999 4.729 15.6999 4.729V7.2702H14.3979C13.115 7.2702 12.715 8.06621 12.715 8.88286V10.8198H15.5789L15.1211 13.8047H12.715V21.0205C17.6516 20.2459 21.4277 15.974 21.4277 10.8198Z" fill="#1877F2"/>
<path d="M15.1211 13.8043L15.5789 10.8194H12.715V8.8824C12.715 8.06567 13.1151 7.26974 14.3979 7.26974H15.6999V4.72854C15.6999 4.72854 14.5182 4.52686 13.3884 4.52686C11.0298 4.52686 9.48809 5.95639 9.48809 8.54438V10.8194H6.86621V13.8043H9.48809V21.0201C10.0218 21.1037 10.5613 21.1457 11.1016 21.1455C11.6418 21.1457 12.1813 21.1038 12.715 21.0201V13.8043H15.1211Z" fill="white"/>
</g>
<defs>
<clipPath id="clip0_10616_13198">
<rect width="20.6523" height="20.6523" fill="white" transform="translate(0.775391 0.493652)"/>
</clipPath>
</defs>
</svg>
