<svg width="25" height="25" viewBox="0 0 13 14" fill="none" xmlns="http://www.w3.org/2000/svg">
<g clip-path="url(#clip0_9699_1166)">
<path d="M6.05995 1.92338L2.07405 2.71858L1.27885 6.70448C1.26639 6.76812 1.26978 6.83385 1.28873 6.89587C1.30768 6.95789 1.34161 7.01429 1.38751 7.0601L6.54398 12.2166C6.58033 12.2538 6.62373 12.2833 6.67166 12.3035C6.71958 12.3237 6.77105 12.334 6.82305 12.334C6.87504 12.334 6.92651 12.3237 6.97444 12.3035C7.02236 12.2833 7.06577 12.2538 7.10211 12.2166L11.572 7.74664C11.6092 7.7103 11.6388 7.66689 11.659 7.61897C11.6791 7.57104 11.6895 7.51957 11.6895 7.46758C11.6895 7.41558 11.6791 7.36411 11.659 7.31619C11.6388 7.26826 11.6092 7.22486 11.572 7.18852L6.41557 2.03204C6.36976 1.98614 6.31336 1.95221 6.25134 1.93326C6.18932 1.91431 6.12359 1.91092 6.05995 1.92338V1.92338Z" stroke="black" stroke-width="0.98783" stroke-linecap="round" stroke-linejoin="round"/>
<path d="M4.14934 5.38657C4.47668 5.38657 4.74204 5.12121 4.74204 4.79387C4.74204 4.46653 4.47668 4.20117 4.14934 4.20117C3.822 4.20117 3.55664 4.46653 3.55664 4.79387C3.55664 5.12121 3.822 5.38657 4.14934 5.38657Z" fill="black"/>
</g>
<defs>
<clipPath id="clip0_9699_1166">
<rect width="12.6442" height="12.6442" fill="white" transform="translate(0 0.644531)"/>
</clipPath>
</defs>
</svg>
