<svg width="30" height="31" viewBox="0 0 30 31" fill="none" xmlns="http://www.w3.org/2000/svg">
<path d="M16.25 24.25C16.25 25.125 16.4125 25.9625 16.6875 26.75H6.25C5.58696 26.75 4.95107 26.4866 4.48223 26.0178C4.01339 25.5489 3.75 24.913 3.75 24.25V6.75C3.75 5.375 4.875 4.25 6.25 4.25H23.75C24.413 4.25 25.0489 4.51339 25.5178 4.98223C25.9866 5.45107 26.25 6.08696 26.25 6.75V17.1875C25.4625 16.9125 24.625 16.75 23.75 16.75V6.75H6.25V24.25H16.25ZM17.45 15.8625L14.0125 20.2875L11.5625 17.3375L8.125 21.75H16.6875C17.1875 20.35 18.0875 19.1375 19.25 18.2625L17.45 15.8625ZM25 23V19.25H22.5V23H18.75V25.5H22.5V29.25H25V25.5H28.75V23H25Z" fill="black"/>
</svg>
