<svg width="44" height="43" viewBox="0 0 44 43" fill="none" xmlns="http://www.w3.org/2000/svg">
<rect x="0.566406" width="42.9333" height="42.9333" rx="21.4667" fill="black"/>
<path fill-rule="evenodd" clip-rule="evenodd" d="M15.5924 12.8792C15.5924 14.0648 14.6313 15.026 13.4456 15.026C12.26 15.026 11.2988 14.0648 11.2988 12.8792C11.2988 11.6936 12.26 10.7324 13.4456 10.7324C14.6313 10.7324 15.5924 11.6936 15.5924 12.8792ZM26.3253 17.172C28.0333 17.172 29.6715 17.8505 30.8793 19.0583C32.0871 20.2661 32.7656 21.9042 32.7656 23.6123V31.1261H28.472V23.6123C28.472 23.043 28.2459 22.4969 27.8433 22.0943C27.4407 21.6917 26.8946 21.4655 26.3253 21.4655C25.7559 21.4655 25.2098 21.6917 24.8072 22.0943C24.4046 22.4969 24.1785 23.043 24.1785 23.6123V31.1261H19.8849V23.6123C19.8849 21.9042 20.5634 20.2661 21.7712 19.0583C22.979 17.8505 24.6172 17.172 26.3253 17.172ZM15.5924 31.1263V18.2456H11.2988V31.1263H15.5924Z" fill="white"/>
</svg>
