<svg width="44" height="43" viewBox="0 0 44 43" fill="none" xmlns="http://www.w3.org/2000/svg">
<rect x="0.299805" width="42.9333" height="42.9333" rx="21.4667" fill="black"/>
<path fill-rule="evenodd" clip-rule="evenodd" d="M31.3643 14.5744C31.6966 14.917 31.9326 15.3412 32.0485 15.8042C32.358 17.52 32.5082 19.2606 32.4973 21.004C32.5034 22.7213 32.3532 24.4357 32.0485 26.1258C31.9326 26.5888 31.6966 27.013 31.3643 27.3556C31.032 27.6981 30.6151 27.947 30.1559 28.0769C28.4779 28.5257 21.766 28.5257 21.766 28.5257C21.766 28.5257 15.0541 28.5257 13.3761 28.0769C12.9262 27.9538 12.5156 27.7167 12.1841 27.3886C11.8526 27.0605 11.6113 26.6524 11.4835 26.2038C11.174 24.4881 11.0238 22.7474 11.0347 21.004C11.0262 19.2737 11.1764 17.5462 11.4835 15.8433C11.5994 15.3803 11.8354 14.956 12.1677 14.6135C12.5 14.2709 12.9169 14.0221 13.3761 13.8921C15.0541 13.4434 21.766 13.4434 21.766 13.4434C21.766 13.4434 28.4779 13.4434 30.1559 13.8531C30.6151 13.983 31.032 14.2319 31.3643 14.5744ZM25.1819 21.0044L19.5723 24.1945V17.8143L25.1819 21.0044Z" fill="white"/>
</svg>
