<svg width="44" height="43" viewBox="0 0 44 43" fill="none" xmlns="http://www.w3.org/2000/svg">
<rect x="0.766602" width="42.9333" height="42.9333" rx="21.4667" fill="black"/>
<path d="M34.0619 14.1389C33.1918 14.5142 32.2448 14.7844 31.2695 14.8896C32.2821 14.288 33.0405 13.3376 33.4022 12.2166C32.4519 12.7819 31.411 13.1783 30.3254 13.3882C29.8717 12.9031 29.323 12.5167 28.7134 12.253C28.1038 11.9893 27.4465 11.854 26.7823 11.8555C24.0951 11.8555 21.934 14.0337 21.934 16.7066C21.934 17.082 21.9795 17.4574 22.0534 17.8185C18.0297 17.6081 14.4411 15.6858 12.0554 12.7427C11.6206 13.4852 11.3928 14.3306 11.3956 15.191C11.3956 16.8744 12.2516 18.3588 13.5568 19.2317C12.7876 19.2015 12.0364 18.99 11.3644 18.6147V18.6744C11.3644 21.0317 13.0307 22.9853 15.2516 23.4346C14.8346 23.5429 14.4056 23.5983 13.9748 23.5995C13.6591 23.5995 13.3606 23.5682 13.0591 23.5256C13.6734 25.4478 15.462 26.844 17.5918 26.8895C15.9255 28.1947 13.8383 28.9625 11.5719 28.9625C11.1653 28.9625 10.79 28.9483 10.4004 28.9028C12.5501 30.2819 15.1008 31.0781 17.8478 31.0781C26.7652 31.0781 31.6448 23.6905 31.6448 17.2782C31.6448 17.0678 31.6448 16.8574 31.6306 16.6469C32.5747 15.9559 33.4022 15.1 34.0619 14.1389Z" fill="white"/>
</svg>
