<svg width="43" height="43" viewBox="0 0 43 43" fill="none" xmlns="http://www.w3.org/2000/svg">
<rect x="0.0332031" width="42.9333" height="42.9333" rx="21.4667" fill="black"/>
<path d="M21.499 15.9614C18.4525 15.9614 15.9938 18.42 15.9938 21.4665C15.9938 24.5129 18.4525 26.9716 21.499 26.9716C24.5454 26.9716 27.0041 24.5129 27.0041 21.4665C27.0041 18.42 24.5454 15.9614 21.499 15.9614ZM21.499 25.0444C19.5288 25.0444 17.921 23.4366 17.921 21.4665C17.921 19.4963 19.5288 17.8886 21.499 17.8886C23.4691 17.8886 25.0769 19.4963 25.0769 21.4665C25.0769 23.4366 23.4691 25.0444 21.499 25.0444ZM27.2295 14.4529C26.5182 14.4529 25.9438 15.0273 25.9438 15.7386C25.9438 16.4499 26.5182 17.0243 27.2295 17.0243C27.9408 17.0243 28.5152 16.4526 28.5152 15.7386C28.5154 15.5697 28.4823 15.4024 28.4178 15.2463C28.3532 15.0903 28.2585 14.9484 28.1391 14.829C28.0197 14.7096 27.8779 14.6149 27.7218 14.5503C27.5657 14.4858 27.3984 14.4527 27.2295 14.4529ZM32.23 21.4665C32.23 19.9849 32.2434 18.5166 32.1602 17.0377C32.077 15.3199 31.6851 13.7953 30.429 12.5391C29.1701 11.2803 27.6482 10.8911 25.9304 10.8079C24.4488 10.7247 22.9806 10.7381 21.5016 10.7381C20.02 10.7381 18.5518 10.7247 17.0729 10.8079C15.355 10.8911 13.8305 11.283 12.5743 12.5391C11.3154 13.798 10.9263 15.3199 10.843 17.0377C10.7598 18.5193 10.7733 19.9875 10.7733 21.4665C10.7733 22.9454 10.7598 24.4163 10.843 25.8953C10.9263 27.6131 11.3181 29.1377 12.5743 30.3938C13.8331 31.6527 15.355 32.0419 17.0729 32.1251C18.5545 32.2083 20.0227 32.1949 21.5016 32.1949C22.9833 32.1949 24.4515 32.2083 25.9304 32.1251C27.6482 32.0419 29.1728 31.65 30.429 30.3938C31.6878 29.135 32.077 27.6131 32.1602 25.8953C32.2461 24.4163 32.23 22.9481 32.23 21.4665ZM29.868 27.7956C29.6721 28.2841 29.4359 28.6492 29.0574 29.0249C28.6789 29.4034 28.3166 29.6396 27.8281 29.8355C26.4162 30.3965 23.0638 30.2704 21.499 30.2704C19.9341 30.2704 16.579 30.3965 15.1671 29.8382C14.6786 29.6423 14.3136 29.4061 13.9378 29.0276C13.5594 28.6492 13.3232 28.2868 13.1272 27.7983C12.5689 26.3838 12.6951 23.0313 12.6951 21.4665C12.6951 19.9016 12.5689 16.5465 13.1272 15.1347C13.3232 14.6462 13.5594 14.2811 13.9378 13.9054C14.3163 13.5296 14.6786 13.2907 15.1671 13.0947C16.579 12.5365 19.9341 12.6626 21.499 12.6626C23.0638 12.6626 26.4189 12.5365 27.8308 13.0947C28.3193 13.2907 28.6843 13.5269 29.0601 13.9054C29.4385 14.2838 29.6747 14.6462 29.8707 15.1347C30.429 16.5465 30.3028 19.9016 30.3028 21.4665C30.3028 23.0313 30.429 26.3838 29.868 27.7956Z" fill="white"/>
</svg>
