<svg width="11" height="12" viewBox="0 0 11 12" fill="none" xmlns="http://www.w3.org/2000/svg">
<g clip-path="url(#clip0_9131_13188)">
<path d="M1.14301 7.50391L9.96913 7.50391C10.1566 7.50391 10.3086 7.35192 10.3086 7.16444V2.41192C10.3086 2.22443 10.1566 2.07245 9.96913 2.07245L1.14301 2.07245C0.955531 2.07245 0.803547 2.22443 0.803547 2.41192V7.16444C0.803547 7.35192 0.955531 7.50391 1.14301 7.50391Z" stroke="white" stroke-width="0.678932" stroke-linejoin="round"/>
<path d="M1.48633 8.51562H9.63351M2.16526 9.53402H8.95458" stroke="white" stroke-width="0.678932" stroke-linecap="round" stroke-linejoin="round"/>
<path d="M5.55866 6.4845C6.49607 6.4845 7.25599 5.72458 7.25599 4.78717C7.25599 3.84976 6.49607 3.08984 5.55866 3.08984C4.62125 3.08984 3.86133 3.84976 3.86133 4.78717C3.86133 5.72458 4.62125 6.4845 5.55866 6.4845Z" stroke="white" stroke-width="0.678932" stroke-linecap="round" stroke-linejoin="round"/>
<path d="M10.3117 3.76764C9.86153 3.76764 9.4298 3.58882 9.11149 3.27051C8.79318 2.95219 8.61436 2.52047 8.61436 2.07031M0.806641 3.76764C1.02954 3.76764 1.25025 3.72374 1.45618 3.63844C1.66211 3.55314 1.84922 3.42812 2.00683 3.27051C2.16445 3.11289 2.28947 2.92578 2.37477 2.71985C2.46007 2.51392 2.50397 2.29321 2.50397 2.07031M10.3117 5.80444C9.86153 5.80444 9.4298 5.98326 9.11149 6.30157C8.79318 6.61989 8.61436 7.05161 8.61436 7.50177M0.806641 5.80444C1.02954 5.80444 1.25025 5.84834 1.45618 5.93364C1.66211 6.01894 1.84922 6.14396 2.00683 6.30157C2.16445 6.45919 2.28947 6.6463 2.37477 6.85223C2.46007 7.05816 2.50397 7.27887 2.50397 7.50177" stroke="white" stroke-width="0.678932" stroke-linecap="round" stroke-linejoin="round"/>
</g>
<defs>
<clipPath id="clip0_9131_13188">
<rect width="10.8629" height="10.8629" fill="white" transform="translate(0.125 0.375)"/>
</clipPath>
</defs>
</svg>
