<svg width="11" height="12" viewBox="0 0 11 12" fill="none" xmlns="http://www.w3.org/2000/svg">
<g clip-path="url(#clip0_9131_13195)">
<path d="M9.94097 4.10937L1.11486 4.10938C0.927375 4.10938 0.775391 4.26136 0.775391 4.44884L0.775391 9.20136C0.775391 9.38885 0.927375 9.54083 1.11486 9.54083H9.94097C10.1285 9.54083 10.2804 9.38885 10.2804 9.20136V4.44884C10.2804 4.26136 10.1285 4.10937 9.94097 4.10937Z" stroke="#243853" stroke-width="0.678932" stroke-linejoin="round"/>
<path d="M9.59766 3.08984H1.45047M8.91872 2.07145H2.1294" stroke="#243853" stroke-width="0.678932" stroke-linecap="round" stroke-linejoin="round"/>
<path d="M5.52923 5.12097C4.59182 5.12097 3.8319 5.88089 3.8319 6.8183C3.8319 7.7557 4.59182 8.51562 5.52923 8.51562C6.46664 8.51562 7.22656 7.7557 7.22656 6.8183C7.22656 5.88089 6.46664 5.12097 5.52923 5.12097Z" stroke="#243853" stroke-width="0.678932" stroke-linecap="round" stroke-linejoin="round"/>
<path d="M0.77425 7.84173C1.22441 7.84173 1.65613 8.02056 1.97444 8.33887C2.29275 8.65718 2.47158 9.0889 2.47158 9.53906M10.2793 7.84173C10.0564 7.84173 9.83569 7.88564 9.62976 7.97093C9.42383 8.05623 9.23672 8.18126 9.0791 8.33887C8.92149 8.49648 8.79647 8.68359 8.71117 8.88952C8.62587 9.09545 8.58197 9.31617 8.58197 9.53906M0.77425 5.80494C1.22441 5.80494 1.65613 5.62611 1.97444 5.3078C2.29275 4.98949 2.47158 4.55777 2.47158 4.10761M10.2793 5.80494C10.0564 5.80494 9.83569 5.76103 9.62976 5.67574C9.42383 5.59044 9.23672 5.46541 9.0791 5.3078C8.92149 5.15019 8.79647 4.96308 8.71117 4.75715C8.62587 4.55122 8.58197 4.3305 8.58197 4.10761" stroke="#243853" stroke-width="0.678932" stroke-linecap="round" stroke-linejoin="round"/>
</g>
<defs>
<clipPath id="clip0_9131_13195">
<rect width="10.8629" height="10.8629" fill="white" transform="matrix(-1 0 0 -1 10.959 11.2383)"/>
</clipPath>
</defs>
</svg>
