<svg width="48" height="47" viewBox="0 0 48 47" fill="none" xmlns="http://www.w3.org/2000/svg">
<circle opacity="0.2" cx="23.7706" cy="23.4796" r="23.3146" fill="#584DCD"/>
<path d="M24.1961 13.7295L22.8726 14.6389L21.2978 14.3062L20.4179 15.6518L18.8431 15.9476L18.5474 17.5224L17.2017 18.4023L17.527 19.9771L16.625 21.3006L17.527 22.6314L17.2017 24.1989L18.5474 25.0787L18.8431 26.6536L20.4179 26.9567L21.2978 28.2949L22.8726 27.9696L24.1961 28.8716L25.5196 27.9696L27.0944 28.2949L27.9743 26.9567L29.5491 26.6536L29.8448 25.0787L31.1905 24.1989L30.8652 22.6314L31.7672 21.3006L30.8652 19.9771L31.1905 18.4023L29.8448 17.5224L29.5491 15.9476L27.9743 15.6518L27.0944 14.3062L25.5196 14.6389L24.1961 13.7295ZM24.1961 16.0955C27.0708 16.0955 29.4012 18.4259 29.4012 21.3006C29.4012 24.1753 27.0708 26.5057 24.1961 26.5057C21.3214 26.5057 18.991 24.1753 18.991 21.3006C18.991 18.4259 21.3214 16.0955 24.1961 16.0955ZM27.0057 18.6315L26.5177 19.149L23.4419 22.4318L21.8301 20.9974L21.2978 20.5242L20.3514 21.5889L20.8838 22.0547L23.0131 23.9475L23.5307 24.4059L24.0039 23.9031L27.5528 20.1176L28.0408 19.6L27.0057 18.6315ZM18.0002 25.2857L14.0225 31.4742L17.5714 30.7644L18.5178 34.0768L21.7562 28.6794L21.3939 28.7534C21.2092 28.7939 21.0035 28.711 20.8985 28.5537L20.1296 27.3781L18.7544 27.112C18.569 27.0768 18.4124 26.9203 18.3773 26.7349L18.1111 25.3597L18.0002 25.2857ZM30.392 25.2857L30.2811 25.3597L30.0149 26.7349C29.9797 26.9203 29.8232 27.0768 29.6378 27.112L28.2626 27.3781L27.4937 28.5537C27.3887 28.711 27.1829 28.7939 26.9983 28.7534L26.636 28.6794L29.8744 34.0768L30.8208 30.7644L34.3697 31.4742L30.392 25.2857Z" fill="#584DCD"/>
</svg>
