<svg width="40" height="41" viewBox="0 0 40 41" fill="none" xmlns="http://www.w3.org/2000/svg">
<path d="M25.0007 18.3346H17.5007V15.8346C17.5007 14.4563 18.6223 13.3346 20.0007 13.3346C21.379 13.3346 22.5007 14.4563 22.5007 15.8346H24.1673C24.1673 13.5371 22.2982 11.668 20.0007 11.668C17.7032 11.668 15.834 13.5371 15.834 15.8346V18.3346H15.0007C14.5586 18.3346 14.1347 18.5102 13.8221 18.8228C13.5096 19.1354 13.334 19.5593 13.334 20.0013V26.668C13.334 27.11 13.5096 27.5339 13.8221 27.8465C14.1347 28.159 14.5586 28.3346 15.0007 28.3346H25.0007C25.4427 28.3346 25.8666 28.159 26.1792 27.8465C26.4917 27.5339 26.6673 27.11 26.6673 26.668V20.0013C26.6673 19.5593 26.4917 19.1354 26.1792 18.8228C25.8666 18.5102 25.4427 18.3346 25.0007 18.3346ZM18.3848 22.9171C18.4873 22.525 18.7289 22.1836 19.0647 21.9566C19.4005 21.7296 19.8074 21.6326 20.2095 21.6838C20.6115 21.7349 20.9812 21.9307 21.2495 22.2345C21.5178 22.5383 21.6663 22.9293 21.6673 23.3346C21.6668 23.6261 21.5896 23.9123 21.4433 24.1643C21.297 24.4164 21.0868 24.6255 20.834 24.7705V26.668H19.1673V24.7705C18.852 24.5898 18.6047 24.3106 18.4633 23.9758C18.322 23.641 18.2944 23.2691 18.3848 22.9171Z" fill="#59018F"/>
<circle cx="20" cy="20.5" r="20" fill="#59018F" fill-opacity="0.15"/>
</svg>
