<svg width="48" height="47" viewBox="0 0 48 47" fill="none" xmlns="http://www.w3.org/2000/svg">
<circle opacity="0.2" cx="24.256" cy="23.5792" r="23.3146" fill="#FFB55E"/>
<g clip-path="url(#clip0_8627_12011)">
<path d="M23.31 26.7167C27.2151 26.7167 30.3808 23.551 30.3808 19.646C30.3808 15.7409 27.2151 12.5752 23.31 12.5752C19.4049 12.5752 16.2393 15.7409 16.2393 19.646C16.2393 23.551 19.4049 26.7167 23.31 26.7167Z" stroke="#F9AA4B" stroke-width="1.93154" stroke-miterlimit="10"/>
<path d="M12.5947 32.9037C13.6807 31.0224 15.2428 29.4601 17.1239 28.3739C19.0051 27.2877 21.1391 26.7158 23.3114 26.7158C25.4836 26.7158 27.6176 27.2877 29.4988 28.3739C31.38 29.4601 32.942 31.0224 34.028 32.9037" stroke="#F9AA4B" stroke-width="1.93154" stroke-linecap="round" stroke-linejoin="round"/>
</g>
<defs>
<clipPath id="clip0_8627_12011">
<rect width="28.2831" height="28.2831" fill="white" transform="translate(9.16992 9.04004)"/>
</clipPath>
</defs>
</svg>
