<svg width="33" height="33" viewBox="0 0 33 33" fill="none" xmlns="http://www.w3.org/2000/svg">
<circle opacity="0.2" cx="16.3221" cy="16.7039" r="15.8211" fill="#FF8473"/>
<path opacity="0.3" fill-rule="evenodd" clip-rule="evenodd" d="M11.7305 11.3872C11.4236 11.3049 11.1081 11.4871 11.0259 11.794L9.28162 18.3037C9.19939 18.6106 9.38152 18.9261 9.68843 19.0083L21.914 22.2842C22.2209 22.3664 22.5364 22.1843 22.6186 21.8774L24.3629 15.3676C24.4452 15.0607 24.263 14.7453 23.9561 14.663L11.7305 11.3872ZM19.3622 17.5164C18.9863 18.9194 17.5442 19.752 16.1411 19.3761C14.7381 19.0001 13.9055 17.558 14.2814 16.155C14.6574 14.752 16.0995 13.9194 17.5025 14.2953C18.9055 14.6713 19.7382 16.1134 19.3622 17.5164Z" fill="#FF8473"/>
<path fill-rule="evenodd" clip-rule="evenodd" d="M10.6515 12.6836C10.3337 12.6836 10.0762 12.9412 10.0762 13.2589V19.9983C10.0762 20.316 10.3337 20.5736 10.6515 20.5736H23.3084C23.6261 20.5736 23.8837 20.316 23.8837 19.9983V13.2589C23.8837 12.9412 23.6261 12.6836 23.3084 12.6836H10.6515ZM19.6092 16.6286C19.6092 18.0811 18.4317 19.2586 16.9792 19.2586C15.5267 19.2586 14.3492 18.0811 14.3492 16.6286C14.3492 15.1761 15.5267 13.9986 16.9792 13.9986C18.4317 13.9986 19.6092 15.1761 19.6092 16.6286ZM16.9795 17.9433C17.7057 17.9433 18.2945 17.3546 18.2945 16.6283C18.2945 15.902 17.7057 15.3133 16.9795 15.3133C16.2532 15.3133 15.6645 15.902 15.6645 16.6283C15.6645 17.3546 16.2532 17.9433 16.9795 17.9433Z" fill="#FF8473"/>
</svg>
