<svg width="49" height="49" viewBox="0 0 49 49" fill="none" xmlns="http://www.w3.org/2000/svg">
<path opacity="0.3" fill-rule="evenodd" clip-rule="evenodd" d="M14.7217 13.9859L24.9323 12.0714C25.1462 12.0313 25.3656 12.0313 25.5794 12.0714L35.7901 13.9859V27.0688C35.7901 30.3982 34.0749 33.4928 31.2516 35.2573L25.7212 38.7139C25.4365 38.8918 25.0753 38.8918 24.7906 38.7139L19.2602 35.2573C16.4368 33.4928 14.7217 30.3982 14.7217 27.0688L14.7217 13.9859Z" fill="#584DCD"/>
<path fill-rule="evenodd" clip-rule="evenodd" d="M21.9657 21.4485C21.9657 20.2365 22.9483 19.2539 24.1604 19.2539H26.355C27.567 19.2539 28.5496 20.2365 28.5496 21.4485V23.2043H28.989C29.4738 23.2043 29.8668 23.5973 29.8668 24.0821V28.9103C29.8668 29.3951 29.4738 29.7882 28.989 29.7882H21.5273C21.0424 29.7882 20.6494 29.3951 20.6494 28.9103V24.0821C20.6494 23.5973 21.0424 23.2043 21.5273 23.2043H21.9657V21.4485ZM24.5986 20.5708C23.8714 20.5708 23.2818 21.1603 23.2818 21.8876V23.2044H27.2322V21.8876C27.2322 21.1603 26.6426 20.5708 25.9154 20.5708H24.5986Z" fill="#584DCD"/>
<circle opacity="0.2" cx="24.8157" cy="24.7854" r="24.1409" fill="#584DCD"/>
</svg>
