<svg width="47" height="47" viewBox="0 0 47 47" fill="none" xmlns="http://www.w3.org/2000/svg">
<circle opacity="0.2" cx="23.4122" cy="23.5792" r="23.3146" fill="#C85D3B"/>
<path d="M18.0796 27.7247C21.2216 27.7247 23.7686 25.1776 23.7686 22.0357C23.7686 18.8937 21.2216 16.3467 18.0796 16.3467C14.9377 16.3467 12.3906 18.8937 12.3906 22.0357C12.3906 25.1776 14.9377 27.7247 18.0796 27.7247Z" stroke="#C85D3B" stroke-width="1.93154" stroke-miterlimit="10"/>
<path d="M25.4531 16.5545C25.956 16.4182 26.4746 16.3483 26.9957 16.3467C28.5045 16.3467 29.9516 16.9461 31.0184 18.0129C32.0853 19.0798 32.6847 20.5269 32.6847 22.0357C32.6847 23.5445 32.0853 24.9915 31.0184 26.0584C29.9516 27.1253 28.5045 27.7247 26.9957 27.7247" stroke="#C85D3B" stroke-width="1.93154" stroke-linecap="round" stroke-linejoin="round"/>
<path d="M10.2031 31.8157C11.0914 30.5516 12.2709 29.5199 13.6419 28.8077C15.0129 28.0955 16.5352 27.7236 18.0802 27.7236C19.6252 27.7236 21.1475 28.0955 22.5185 28.8077C23.8895 29.5199 25.069 30.5516 25.9573 31.8157" stroke="#C85D3B" stroke-width="1.93154" stroke-linecap="round" stroke-linejoin="round"/>
<path d="M26.9961 27.7246C28.5412 27.7237 30.0638 28.095 31.435 28.8073C32.8061 29.5195 33.9855 30.5516 34.8732 31.8163" stroke="#C85D3B" stroke-width="1.93154" stroke-linecap="round" stroke-linejoin="round"/>
</svg>
