<svg width="12" height="12" viewBox="0 0 12 12" fill="none" xmlns="http://www.w3.org/2000/svg">
<path d="M6 6.472L8.164 8.636C8.22622 8.69822 8.30267 8.73156 8.39333 8.736C8.484 8.74044 8.56489 8.70711 8.636 8.636C8.70711 8.56489 8.74267 8.48622 8.74267 8.4C8.74267 8.31378 8.70711 8.23511 8.636 8.164L6.472 6L8.636 3.836C8.69822 3.77378 8.73156 3.69733 8.736 3.60667C8.74044 3.516 8.70711 3.43511 8.636 3.364C8.56489 3.29289 8.48622 3.25733 8.4 3.25733C8.31378 3.25733 8.23511 3.29289 8.164 3.364L6 5.528L3.836 3.364C3.77378 3.30178 3.69733 3.26844 3.60667 3.264C3.516 3.25956 3.43511 3.29289 3.364 3.364C3.29289 3.43511 3.25733 3.51378 3.25733 3.6C3.25733 3.68622 3.29289 3.76489 3.364 3.836L5.528 6L3.364 8.164C3.30178 8.22622 3.26844 8.30267 3.264 8.39333C3.25956 8.484 3.29289 8.56489 3.364 8.636C3.43511 8.70711 3.51378 8.74267 3.6 8.74267C3.68622 8.74267 3.76489 8.70711 3.836 8.636L6 6.472ZM6.002 12C5.17267 12 4.39267 11.8427 3.662 11.528C2.93178 11.2129 2.29644 10.7853 1.756 10.2453C1.21556 9.70578 0.787778 9.07111 0.472667 8.34133C0.157556 7.61156 0 6.83178 0 6.002C0 5.17267 0.157333 4.39267 0.472 3.662C0.787111 2.93178 1.21467 2.29644 1.75467 1.756C2.29422 1.21556 2.92889 0.787778 3.65867 0.472667C4.38844 0.157556 5.16822 0 5.998 0C6.82733 0 7.60733 0.157333 8.338 0.472C9.06822 0.787111 9.70356 1.21467 10.244 1.75467C10.7844 2.29422 11.2122 2.92889 11.5273 3.65867C11.8424 4.38844 12 5.16822 12 5.998C12 6.82733 11.8427 7.60733 11.528 8.338C11.2129 9.06822 10.7853 9.70356 10.2453 10.244C9.70578 10.7844 9.07111 11.2122 8.34133 11.5273C7.61156 11.8424 6.83178 12 6.002 12Z" fill="#D01717"/>
</svg>
