<svg width="40" height="41" viewBox="0 0 40 41" fill="none" xmlns="http://www.w3.org/2000/svg">
<circle cx="20" cy="20.1172" r="20" fill="#D01717"/>
<path d="M21 19.1172L30 10.1172L21 19.1172ZM30 10.1172H24.656H30ZM30 10.1172V15.4612V10.1172Z" fill="#D01717"/>
<path d="M21 19.1172L30 10.1172M30 10.1172H24.656M30 10.1172V15.4612" stroke="white" stroke-linecap="round" stroke-linejoin="round"/>
<path d="M20 10.1172C14.477 10.1172 10 14.5942 10 20.1172C10 25.6402 14.477 30.1172 20 30.1172C25.523 30.1172 30 25.6402 30 20.1172" fill="#D01717"/>
<path d="M20 10.1172C14.477 10.1172 10 14.5942 10 20.1172C10 25.6402 14.477 30.1172 20 30.1172C25.523 30.1172 30 25.6402 30 20.1172" stroke="white" stroke-linecap="round"/>
</svg>
