<svg width="20" height="20" viewBox="0 0 40 40" fill="none" xmlns="http://www.w3.org/2000/svg">
        <g clip-path="url(#clip0_7124_7679)">
        <path d="M40 20C40 25.3043 37.8929 30.3914 34.1421 34.1421C30.3914 37.8929 25.3043 40 20 40C14.6957 40 9.60859 37.8929 5.85786 34.1421C2.10714 30.3914 0 25.3043 0 20C0 14.6957 2.10714 9.60859 5.85786 5.85786C9.60859 2.10714 14.6957 0 20 0C25.3043 0 30.3914 2.10714 34.1421 5.85786C37.8929 9.60859 40 14.6957 40 20ZM13.74 15.0825H15.8025C16.1475 15.0825 16.4225 14.8 16.4675 14.4575C16.6925 12.8175 17.8175 11.6225 19.8225 11.6225C21.5375 11.6225 23.1075 12.48 23.1075 14.5425C23.1075 16.13 22.1725 16.86 20.695 17.97C19.0125 19.1925 17.68 20.62 17.775 22.9375L17.7825 23.48C17.7851 23.644 17.8521 23.8004 17.9691 23.9155C18.086 24.0305 18.2435 24.095 18.4075 24.095H20.435C20.6008 24.095 20.7597 24.0292 20.8769 23.9119C20.9942 23.7947 21.06 23.6358 21.06 23.47V23.2075C21.06 21.4125 21.7425 20.89 23.585 19.4925C25.1075 18.335 26.695 17.05 26.695 14.3525C26.695 10.575 23.505 8.75 20.0125 8.75C16.845 8.75 13.375 10.225 13.1375 14.465C13.1341 14.5457 13.1472 14.6263 13.1761 14.7018C13.205 14.7773 13.249 14.846 13.3054 14.9039C13.3618 14.9617 13.4295 15.0074 13.5042 15.0381C13.579 15.0688 13.6592 15.0839 13.74 15.0825ZM19.5525 31.19C21.0775 31.19 22.125 30.205 22.125 28.8725C22.125 27.4925 21.075 26.5225 19.5525 26.5225C18.0925 26.5225 17.03 27.4925 17.03 28.8725C17.03 30.205 18.0925 31.19 19.555 31.19H19.5525Z" fill="black"/>
        </g>
        <defs>
        <clipPath id="clip0_7124_7679">
        <rect width="40" height="40" fill="white"/>
        </clipPath>
        </defs>
      </svg> 