<svg width="35" height="35" viewBox="0 0 48 49" fill="none" xmlns="http://www.w3.org/2000/svg">
<path d="M22 14.5H26C26 13.9696 25.7893 13.4609 25.4142 13.0858C25.0391 12.7107 24.5304 12.5 24 12.5C23.4696 12.5 22.9609 12.7107 22.5858 13.0858C22.2107 13.4609 22 13.9696 22 14.5ZM20 14.5C20 13.4391 20.4214 12.4217 21.1716 11.6716C21.9217 10.9214 22.9391 10.5 24 10.5C25.0609 10.5 26.0783 10.9214 26.8284 11.6716C27.5786 12.4217 28 13.4391 28 14.5H36C36.2652 14.5 36.5196 14.6054 36.7071 14.7929C36.8946 14.9804 37 15.2348 37 15.5C37 15.7652 36.8946 16.0196 36.7071 16.2071C36.5196 16.3946 36.2652 16.5 36 16.5H34.872L32.462 34.176C32.2985 35.3739 31.7066 36.4719 30.7958 37.2669C29.885 38.0619 28.717 38.5 27.508 38.5H20.492C19.283 38.5 18.115 38.0619 17.2042 37.2669C16.2934 36.4719 15.7015 35.3739 15.538 34.176L13.128 16.5H12C11.7348 16.5 11.4804 16.3946 11.2929 16.2071C11.1054 16.0196 11 15.7652 11 15.5C11 15.2348 11.1054 14.9804 11.2929 14.7929C11.4804 14.6054 11.7348 14.5 12 14.5H20ZM22 21.5C22 21.2348 21.8946 20.9804 21.7071 20.7929C21.5196 20.6054 21.2652 20.5 21 20.5C20.7348 20.5 20.4804 20.6054 20.2929 20.7929C20.1054 20.9804 20 21.2348 20 21.5V31.5C20 31.7652 20.1054 32.0196 20.2929 32.2071C20.4804 32.3946 20.7348 32.5 21 32.5C21.2652 32.5 21.5196 32.3946 21.7071 32.2071C21.8946 32.0196 22 31.7652 22 31.5V21.5ZM27 20.5C27.2652 20.5 27.5196 20.6054 27.7071 20.7929C27.8946 20.9804 28 21.2348 28 21.5V31.5C28 31.7652 27.8946 32.0196 27.7071 32.2071C27.5196 32.3946 27.2652 32.5 27 32.5C26.7348 32.5 26.4804 32.3946 26.2929 32.2071C26.1054 32.0196 26 31.7652 26 31.5V21.5C26 21.2348 26.1054 20.9804 26.2929 20.7929C26.4804 20.6054 26.7348 20.5 27 20.5ZM17.52 33.906C17.6182 34.6246 17.9733 35.2833 18.5197 35.7602C19.0661 36.2371 19.7667 36.4999 20.492 36.5H27.508C28.2336 36.5004 28.9347 36.2378 29.4816 35.7608C30.0284 35.2839 30.3838 34.6249 30.482 33.906L32.854 16.5H15.146L17.52 33.906Z" fill="#243853"/>
<rect x="0.4" y="0.9" width="47.2" height="47.2" rx="7.6" stroke="#BDBDBD" stroke-width="0.8"/>
</svg>
