<svg width="100" height="100" viewBox="0 0 100 100" fill="none" xmlns="http://www.w3.org/2000/svg">
<path opacity="0.3" fill-rule="evenodd" clip-rule="evenodd" d="M50.0007 91.6667C73.0125 91.6667 91.6673 73.0119 91.6673 50C91.6673 26.9881 73.0125 8.33334 50.0007 8.33334C26.9888 8.33334 8.33398 26.9881 8.33398 50C8.33398 73.0119 26.9888 91.6667 50.0007 91.6667Z" fill="#219653"/>
<path d="M69.8707 32.5737C71.4408 30.8914 74.0774 30.8005 75.7597 32.3706C77.442 33.9408 77.533 36.5774 75.9628 38.2597L46.7961 69.5097C45.2728 71.1419 42.7336 71.2832 41.0384 69.8302L26.4551 57.3302C24.7079 55.8327 24.5056 53.2022 26.0032 51.455C27.5008 49.7079 30.1312 49.5055 31.8784 51.0031L43.4292 60.9038L69.8707 32.5737Z" fill="#219653"/>
</svg>
