<svg width="200" height="200" viewBox="0 0 293 260" fill="none" xmlns="http://www.w3.org/2000/svg">
<rect width="293" height="179.365" fill="white" fill-opacity="0.01"/>
<path opacity="0.8" fill-rule="evenodd" clip-rule="evenodd" d="M58.8309 33.6037C61.8439 24.1271 64.6478 18.2269 67.2381 15.9007C74.4115 9.46247 84.3298 12.9664 86.4384 13.4683C93.8458 15.2361 91.4373 3.60292 97.7927 1.23831C102.028 -0.337347 105.511 1.58871 108.245 7.01647C110.665 1.95267 114.353 -0.366735 119.308 0.0469592C126.743 0.673153 129.345 25.6553 139.561 20.1869C149.779 14.7162 162.305 13.466 167.657 21.5952C168.813 23.354 169.256 20.6254 177.123 11.3094C184.989 1.9911 192.833 -2.1142 208.925 3.3113C216.241 5.77539 222.258 12.4555 226.982 23.3495C226.982 38.8981 238.479 48.1033 261.47 50.9585C295.96 55.2424 269.188 92.1336 226.982 102.937C184.773 113.743 87.5972 119.575 34.8636 92.276C-0.292216 74.0802 7.6969 54.5213 58.8286 33.6037H58.8309Z" fill="url(#paint0_linear_7445_10813)"/>
<path d="M145.311 171.005C180.433 171.005 208.904 164.448 208.904 156.36C208.904 148.272 180.433 141.716 145.311 141.716C110.19 141.716 81.7188 148.272 81.7188 156.36C81.7188 164.448 110.19 171.005 145.311 171.005Z" fill="url(#paint1_linear_7445_10813)"/>
<path opacity="0.675" fill-rule="evenodd" clip-rule="evenodd" d="M252.673 174.633C204.859 186.564 41.6518 172.917 24.2807 166.684C15.8258 163.648 8.20476 157.94 1.41992 149.558C0.660541 148.621 0.183226 147.489 0.0431273 146.293C-0.096971 145.097 0.105866 143.886 0.6282 142.801C1.15053 141.715 1.97104 140.798 2.99491 140.156C4.01878 139.515 5.20423 139.174 6.41425 139.175H291.61C297.529 154.859 284.55 166.678 252.673 174.633Z" fill="url(#paint2_linear_7445_10813)"/>
<path d="M194.113 117.113L172.366 91.8125C171.851 91.2089 171.212 90.7228 170.492 90.3873C169.771 90.0518 168.987 89.8748 168.192 89.8684H121.429C119.825 89.8684 118.3 90.6009 117.255 91.8125L95.5078 117.113V131.003H194.113V117.113Z" fill="url(#paint3_linear_7445_10813)"/>
<path d="M187.949 131.514L168.914 109.477C168.454 108.957 167.887 108.541 167.251 108.258C166.615 107.975 165.925 107.832 165.229 107.838H124.388C122.986 107.838 121.616 108.417 120.702 109.477L101.668 131.514V143.617H187.949V131.514Z" fill="url(#paint4_linear_7445_10813)"/>
<path d="M194.113 146.92C194.113 148.848 193.24 150.582 191.864 151.744L191.584 151.97C190.492 152.793 189.159 153.238 187.789 153.236H101.834C101.057 153.236 100.314 153.096 99.6273 152.838L99.2865 152.703C98.1621 152.205 97.2067 151.393 96.5361 150.367C95.8654 149.34 95.5083 148.142 95.5078 146.918V117.265H119.432C122.075 117.265 124.204 119.428 124.204 122.053V122.087C124.204 124.714 126.358 126.832 129 126.832H160.621C161.891 126.831 163.109 126.329 164.008 125.436C164.907 124.543 165.414 123.333 165.417 122.069C165.417 119.433 167.549 117.265 170.189 117.265H194.115L194.113 146.92Z" fill="url(#paint5_linear_7445_10813)"/>
<path d="M31.5944 251.51H35.0488V240.35H35.0931L41.9355 251.51H46.4529V235.833H42.9984V246.727H42.9542L36.2889 235.833H31.5944V251.51ZM48.8318 246.13C48.8318 249.562 51.4891 251.776 54.8106 251.776C58.1322 251.776 60.7895 249.562 60.7895 246.13C60.7895 242.697 58.1322 240.483 54.8106 240.483C51.4891 240.483 48.8318 242.697 48.8318 246.13ZM52.1534 246.13C52.1534 244.513 53.1498 243.406 54.8106 243.406C56.4714 243.406 57.4679 244.513 57.4679 246.13C57.4679 247.746 56.4714 248.853 54.8106 248.853C53.1498 248.853 52.1534 247.746 52.1534 246.13ZM69.719 251.51H73.1734V245.399H75.6978C78.9973 245.399 81.4995 244.269 81.4995 240.594C81.4995 236.873 78.798 235.833 75.5428 235.833H69.719V251.51ZM73.1734 238.756H74.9449C76.2736 238.756 77.9122 238.977 77.9122 240.594C77.9122 242.055 76.6943 242.476 75.4764 242.476H73.1734V238.756ZM83.2463 251.51H86.5679V247.015C86.5679 244.867 86.8779 243.406 89.4023 243.406C89.8894 243.406 90.3545 243.494 90.8195 243.627V240.594C90.5095 240.505 90.0887 240.483 89.7123 240.483C88.2508 240.483 87.3208 241.169 86.6122 242.476H86.5679V240.749H83.2463V251.51ZM91.476 246.13C91.476 249.562 94.1333 251.776 97.4549 251.776C100.776 251.776 103.434 249.562 103.434 246.13C103.434 242.697 100.776 240.483 97.4549 240.483C94.1333 240.483 91.476 242.697 91.476 246.13ZM94.7976 246.13C94.7976 244.513 95.7941 243.406 97.4549 243.406C99.1156 243.406 100.112 244.513 100.112 246.13C100.112 247.746 99.1156 248.853 97.4549 248.853C95.7941 248.853 94.7976 247.746 94.7976 246.13ZM116.684 234.77H113.362V241.9H113.318C112.565 240.859 111.28 240.483 109.907 240.483C106.852 240.483 104.992 243.229 104.992 246.218C104.992 249.473 107.095 251.776 110.284 251.776C111.79 251.776 113.074 250.868 113.583 250.093H113.628V251.51H116.684V234.77ZM113.628 246.13C113.628 247.746 112.631 248.853 110.97 248.853C109.31 248.853 108.313 247.746 108.313 246.13C108.313 244.513 109.31 243.406 110.97 243.406C112.631 243.406 113.628 244.513 113.628 246.13ZM129.702 240.749H126.38V246.107C126.38 247.502 126.114 248.853 124.387 248.853C122.682 248.853 122.66 247.259 122.66 246.019V240.749H119.338V246.683C119.338 249.562 119.958 251.776 123.324 251.776C124.941 251.776 126.026 250.89 126.468 250.049H126.513V251.51H129.702V240.749ZM141.531 241.922C140.49 240.859 138.962 240.483 137.7 240.483C134.379 240.483 131.721 242.697 131.721 246.13C131.721 249.562 134.379 251.776 137.7 251.776C138.962 251.776 140.49 251.4 141.531 250.337L139.339 248.034C138.962 248.477 138.431 248.853 137.7 248.853C136.039 248.853 135.043 247.746 135.043 246.13C135.043 244.513 136.039 243.406 137.7 243.406C138.387 243.406 139.007 243.76 139.339 244.225L141.531 241.922ZM150.066 240.749H147.143V237.56H143.821V240.749H141.696V243.406H143.821V248.521C143.821 250.868 145.526 251.776 147.741 251.776C148.516 251.776 149.335 251.71 150.066 251.444V248.676C149.778 248.942 149.069 248.986 148.715 248.986C147.276 248.986 147.143 248.145 147.143 246.993V243.406H150.066V240.749ZM159.881 241.9C158.884 240.837 157.312 240.483 155.895 240.483C153.636 240.483 151.377 241.59 151.377 244.114C151.377 248.211 156.98 246.75 156.98 248.477C156.98 249.053 156.227 249.252 155.474 249.252C154.478 249.252 153.747 248.831 153.127 248.078L151.112 250.315C152.175 251.4 153.835 251.776 155.341 251.776C157.644 251.776 160.301 250.979 160.301 248.233C160.301 244.137 154.699 245.487 154.699 243.893C154.699 243.251 155.363 243.007 155.917 243.007C156.714 243.007 157.356 243.317 157.843 243.915L159.881 241.9ZM167.361 251.51H171.169L172.476 248.189H178.565L179.916 251.51H183.813L176.993 235.833H174.137L167.361 251.51ZM177.392 245.266H173.561L175.465 240.394L177.392 245.266ZM187.469 251.51H190.99L195.242 240.749H191.898L189.374 248.056H189.33L186.606 240.749H183.019L187.469 251.51ZM203.206 251.51H206.262V246.041C206.262 242.454 205.221 240.483 201.346 240.483C199.597 240.483 197.825 241.059 196.607 242.21L198.379 244.026C199.088 243.229 199.995 242.742 201.08 242.742C202.232 242.742 203.206 243.494 203.206 244.668C200.438 244.668 195.921 244.734 195.921 248.455C195.921 250.625 197.737 251.776 199.752 251.776C201.103 251.776 202.431 251.311 203.162 250.16H203.206V251.51ZM203.206 246.794V247.502C203.206 248.831 201.988 249.518 200.682 249.518C199.951 249.518 199.11 249.141 199.11 248.344C199.11 246.882 201.368 246.794 202.387 246.794H203.206ZM208.39 251.51H211.712V240.749H208.39V251.51ZM208.125 237.361C208.125 238.423 208.988 239.287 210.051 239.287C211.114 239.287 211.978 238.423 211.978 237.361C211.978 236.298 211.114 235.434 210.051 235.434C208.988 235.434 208.125 236.298 208.125 237.361ZM214.143 251.51H217.464V234.77H214.143V251.51ZM226.604 251.51H229.66V246.041C229.66 242.454 228.619 240.483 224.744 240.483C222.995 240.483 221.223 241.059 220.006 242.21L221.777 244.026C222.486 243.229 223.394 242.742 224.479 242.742C225.63 242.742 226.604 243.494 226.604 244.668C223.836 244.668 219.319 244.734 219.319 248.455C219.319 250.625 221.135 251.776 223.15 251.776C224.501 251.776 225.829 251.311 226.56 250.16H226.604V251.51ZM226.604 246.794V247.502C226.604 248.831 225.386 249.518 224.08 249.518C223.349 249.518 222.508 249.141 222.508 248.344C222.508 246.882 224.766 246.794 225.785 246.794H226.604ZM232.054 251.51H235.11V250.093H235.154C235.664 250.868 236.948 251.776 238.454 251.776C241.642 251.776 243.746 249.473 243.746 246.218C243.746 243.229 241.886 240.483 238.83 240.483C237.457 240.483 236.173 240.859 235.42 241.9H235.376V234.77H232.054V251.51ZM235.11 246.13C235.11 244.513 236.107 243.406 237.767 243.406C239.428 243.406 240.425 244.513 240.425 246.13C240.425 247.746 239.428 248.853 237.767 248.853C236.107 248.853 235.11 247.746 235.11 246.13ZM245.737 251.51H249.058V234.77H245.737V251.51ZM259.306 247.945C258.752 248.698 258.021 249.252 256.936 249.252C255.652 249.252 254.7 248.433 254.434 247.17H262.14V246.13C262.14 242.697 260.191 240.483 257.091 240.483C253.77 240.483 251.112 242.697 251.112 246.13C251.112 249.562 253.77 251.776 257.091 251.776C258.818 251.776 260.568 251.001 261.631 249.65L259.306 247.945ZM254.434 244.912C254.522 243.871 255.32 242.874 256.781 242.874C257.977 242.874 258.84 243.804 258.818 244.912H254.434Z" fill="#666666"/>
<defs>
<linearGradient id="paint0_linear_7445_10813" x1="151.517" y1="83.5302" x2="151.517" y2="-19.7431" gradientUnits="userSpaceOnUse">
<stop stop-color="white" stop-opacity="0"/>
<stop offset="1" stop-color="#515151" stop-opacity="0.3"/>
</linearGradient>
<linearGradient id="paint1_linear_7445_10813" x1="138.685" y1="171.005" x2="138.685" y2="141.716" gradientUnits="userSpaceOnUse">
<stop stop-color="white" stop-opacity="0"/>
<stop offset="1" stop-color="#6F768D" stop-opacity="0.373"/>
</linearGradient>
<linearGradient id="paint2_linear_7445_10813" x1="146.5" y1="179.365" x2="146.5" y2="131.267" gradientUnits="userSpaceOnUse">
<stop stop-color="#5A5A5A" stop-opacity="0"/>
<stop offset="1" stop-color="#919191" stop-opacity="0.15"/>
</linearGradient>
<linearGradient id="paint3_linear_7445_10813" x1="144.81" y1="89.8684" x2="144.81" y2="108.358" gradientUnits="userSpaceOnUse">
<stop stop-color="#BDBDBD"/>
<stop offset="1" stop-color="#666666"/>
</linearGradient>
<linearGradient id="paint4_linear_7445_10813" x1="156.322" y1="143.617" x2="156.322" y2="105.936" gradientUnits="userSpaceOnUse">
<stop stop-color="#D8D8D8"/>
<stop offset="1" stop-color="white"/>
</linearGradient>
<linearGradient id="paint5_linear_7445_10813" x1="144.812" y1="117.265" x2="144.812" y2="153.236" gradientUnits="userSpaceOnUse">
<stop stop-color="#979797"/>
<stop offset="1" stop-color="#D8D8D8"/>
</linearGradient>
</defs>
</svg>
