<svg width="61" height="56" viewBox="0 0 61 56" fill="none" xmlns="http://www.w3.org/2000/svg">
<rect width="61" height="56" rx="6.81081" fill="#F5DCD9"/>
<path opacity="0.3" d="M30.9841 19.8751L26.5452 25.3579C26.1744 25.816 25.513 25.8778 25.0679 25.4961C24.6229 25.1144 24.5627 24.4336 24.9336 23.9755L30.1783 17.4974C30.5977 16.9794 31.3706 16.9794 31.79 17.4974L37.0347 23.9755C37.4055 24.4336 37.3454 25.1144 36.9004 25.4961C36.4553 25.8778 35.7939 25.816 35.423 25.3579L30.9841 19.8751Z" fill="black"/>
<path fill-rule="evenodd" clip-rule="evenodd" d="M21.8718 24.6667C21.2735 24.6667 20.7885 25.1517 20.7885 25.75V34.3729C20.7885 36.1678 22.2435 37.6229 24.0384 37.6229H37.9285C39.7234 37.6229 41.1785 36.1678 41.1785 34.3729V25.75C41.1785 25.1517 40.6935 24.6667 40.0952 24.6667H21.8718ZM30.9829 27.9057C30.4035 27.9057 29.9339 28.3754 29.9339 28.9547V33.3349C29.9339 33.9142 30.4035 34.3838 30.9829 34.3838C31.5622 34.3838 32.0318 33.9142 32.0318 33.3349V28.9547C32.0318 28.3754 31.5622 27.9057 30.9829 27.9057ZM24.954 29.3499C24.8077 28.7881 25.1428 28.2076 25.7024 28.0533C26.262 27.899 26.8341 28.2293 26.9804 28.791L28.0797 33.0141C28.226 33.5759 27.8909 34.1564 27.3313 34.3107C26.7717 34.465 26.1996 34.1347 26.0533 33.573L24.954 29.3499ZM36.2656 28.0534C35.706 27.899 35.1338 28.2293 34.9876 28.7911L33.8882 33.0142C33.742 33.5759 34.0771 34.1564 34.6367 34.3108C35.1962 34.4651 35.7684 34.1348 35.9146 33.5731L37.014 29.3499C37.1602 28.7882 36.8251 28.2077 36.2656 28.0534Z" fill="black"/>
</svg>
