<svg width="62" height="56" viewBox="0 0 62 56" fill="none" xmlns="http://www.w3.org/2000/svg">
<rect width="62" height="56" rx="6.81081" fill="#F4EBC2"/>
<path opacity="0.3" fill-rule="evenodd" clip-rule="evenodd" d="M30.96 18.0851C33.7619 16.3308 37.5012 16.6722 39.9383 19.1093C42.3762 21.5472 42.3762 25.5 39.9383 27.9379L28.0546 39.8216C27.8296 40.0466 27.4648 40.0466 27.2397 39.8216L18.4529 31.0348C18.2587 30.8405 18.2587 30.5256 18.4529 30.3314L29.2386 19.5457L31.6253 21.9324C31.6701 21.9772 31.7177 22.0174 31.7676 22.0531C31.1594 23.3102 31.377 24.8664 32.4202 25.9096C33.7382 27.2276 35.8751 27.2276 37.1931 25.9096C38.5111 24.5916 38.5111 22.4546 37.1931 21.1366C36.1501 20.0935 34.5941 19.8759 33.337 20.4838C33.3013 20.4339 33.2611 20.3862 33.2162 20.3414L30.96 18.0851Z" fill="black"/>
<rect x="26.0591" y="25.9095" width="9" height="2.25" rx="1.125" transform="rotate(45 26.0591 25.9095)" fill="black"/>
<rect x="23.6729" y="29.8877" width="6.75" height="2.25" rx="1.125" transform="rotate(45 23.6729 29.8877)" fill="black"/>
</svg>
