<svg width="61" height="56" viewBox="0 0 61 56" fill="none" xmlns="http://www.w3.org/2000/svg">
<rect width="61" height="56" rx="6.81081" fill="#D3D1EB"/>
<path fill-rule="evenodd" clip-rule="evenodd" d="M41.1046 30.5692V35.0002C41.1046 36.2238 40.1409 37.2157 38.9522 37.2157H21.7329C20.5441 37.2157 19.5805 36.2238 19.5805 35.0002L19.5805 30.5692H24.1858L24.7714 32.3775C25.0644 33.2822 25.8869 33.8924 26.8134 33.8924H33.9822C34.7975 33.8924 35.5428 33.4183 35.9074 32.6677L36.9268 30.5692L41.1046 30.5692V30.5692Z" fill="#333333"/>
<path opacity="0.3" fill-rule="evenodd" clip-rule="evenodd" d="M20.1886 28.3536L23.809 21.7287C24.1903 21.0311 24.9074 20.5994 25.685 20.5994H35.0056C35.7832 20.5994 36.5004 21.0311 36.8816 21.7287L40.502 28.3536H36.9296C36.1143 28.3536 35.369 28.8278 35.0044 29.5783L33.985 31.6769H26.8162L26.2306 29.8685C25.9376 28.9638 25.1151 28.3536 24.1886 28.3536H20.1886Z" fill="#333333"/>
</svg>
