<svg width="56" height="55" viewBox="0 0 56 55" fill="none" xmlns="http://www.w3.org/2000/svg">
<circle opacity="0.2" cx="28" cy="27.5" r="27.5" fill="#05C699"/>
<path opacity="0.3" fill-rule="evenodd" clip-rule="evenodd" d="M20.0148 18.2588C19.4813 18.1159 18.933 18.4325 18.79 18.9659L15.7581 30.2811C15.6152 30.8145 15.9318 31.3629 16.4652 31.5058L37.7156 37.1998C38.2491 37.3428 38.7974 37.0262 38.9403 36.4927L41.9722 25.1776C42.1152 24.6441 41.7986 24.0958 41.2651 23.9528L20.0148 18.2588ZM33.2808 28.9124C32.6274 31.3511 30.1207 32.7984 27.682 32.1449C25.2433 31.4915 23.7961 28.9848 24.4495 26.5461C25.1029 24.1074 27.6096 22.6602 30.0483 23.3136C32.487 23.9671 33.9343 26.4737 33.2808 28.9124Z" fill="#05C699"/>
<path fill-rule="evenodd" clip-rule="evenodd" d="M18.1387 20.5132C17.5864 20.5132 17.1387 20.9609 17.1387 21.5132V33.2275C17.1387 33.7798 17.5864 34.2275 18.1387 34.2275H40.1387C40.691 34.2275 41.1387 33.7798 41.1387 33.2275V21.5132C41.1387 20.9609 40.691 20.5132 40.1387 20.5132H18.1387ZM33.7101 27.3703C33.7101 29.8951 31.6634 31.9418 29.1387 31.9418C26.6139 31.9418 24.5672 29.8951 24.5672 27.3703C24.5672 24.8456 26.6139 22.7989 29.1387 22.7989C31.6634 22.7989 33.7101 24.8456 33.7101 27.3703ZM29.1387 29.656C30.401 29.656 31.4244 28.6327 31.4244 27.3703C31.4244 26.108 30.401 25.0846 29.1387 25.0846C27.8763 25.0846 26.853 26.108 26.853 27.3703C26.853 28.6327 27.8763 29.656 29.1387 29.656Z" fill="#05C699"/>
</svg>
