<svg width="56" height="55" viewBox="0 0 56 55" fill="none" xmlns="http://www.w3.org/2000/svg">
<path opacity="0.3" fill-rule="evenodd" clip-rule="evenodd" d="M16.5 15.1977L28.1314 13.0168C28.375 12.9712 28.625 12.9712 28.8686 13.0168L40.5 15.1977V30.101C40.5 33.8937 38.5462 37.4189 35.33 39.429L29.03 43.3665C28.7057 43.5691 28.2943 43.5691 27.97 43.3665L21.67 39.429C18.4538 37.4189 16.5 33.8937 16.5 30.101L16.5 15.1977Z" fill="#584DCD"/>
<path fill-rule="evenodd" clip-rule="evenodd" d="M24.75 23.6976C24.75 22.3169 25.8693 21.1976 27.25 21.1976H29.75C31.1307 21.1976 32.25 22.3169 32.25 23.6976V25.6976H32.75C33.3023 25.6976 33.75 26.1453 33.75 26.6976V32.1976C33.75 32.7499 33.3023 33.1976 32.75 33.1976H24.25C23.6977 33.1976 23.25 32.7499 23.25 32.1976V26.6976C23.25 26.1453 23.6977 25.6976 24.25 25.6976H24.75V23.6976ZM27.75 22.6976C26.9216 22.6976 26.25 23.3692 26.25 24.1976V25.6976H30.75V24.1976C30.75 23.3692 30.0784 22.6976 29.25 22.6976H27.75Z" fill="#584DCD"/>
<circle opacity="0.2" cx="28" cy="27.5" r="27.5" fill="#584DCD"/>
</svg>
