<svg width="55" height="56" viewBox="0 0 55 56" fill="none" xmlns="http://www.w3.org/2000/svg">
<circle opacity="0.2" cx="27.5" cy="28" r="27.5" fill="#C85D3B"/>
<path opacity="0.3" fill-rule="evenodd" clip-rule="evenodd" d="M17.5 14.5C16.6716 14.5 16 15.1716 16 16V16.2C16 17.0284 16.6716 17.7 17.5 17.7H20.8V35.4C20.8 36.2284 21.4716 36.9 22.3 36.9H22.4V37C22.4 37.8284 23.0716 38.5 23.9 38.5H38.5C39.3284 38.5 40 37.8284 40 37V36.8C40 35.9716 39.3284 35.3 38.5 35.3H24V16.2V16C24 15.1716 23.3284 14.5 22.5 14.5H22.3H17.5Z" fill="#C85D3B"/>
<rect opacity="0.3" x="27.1992" y="19.3" width="12.8" height="12.8" rx="1.5" fill="#C85D3B"/>
<path fill-rule="evenodd" clip-rule="evenodd" d="M22.3996 41.7C25.0506 41.7 27.1996 39.5509 27.1996 36.9C27.1996 34.249 25.0506 32.1 22.3996 32.1C19.7486 32.1 17.5996 34.249 17.5996 36.9C17.5996 39.5509 19.7486 41.7 22.3996 41.7Z" fill="#C85D3B"/>
</svg>
