<svg width="55" height="55" viewBox="0 0 55 55" fill="none" xmlns="http://www.w3.org/2000/svg">
<circle opacity="0.2" cx="27.5" cy="27.5" r="27.5" fill="#FFB55E"/>
<path d="M28 16L26.4389 17.0727L24.5814 16.6802L23.5436 18.2674L21.686 18.6163L21.3372 20.4738L19.75 21.5116L20.1337 23.3692L19.0698 24.9302L20.1337 26.5L19.75 28.3488L21.3372 29.3866L21.686 31.2442L23.5436 31.6017L24.5814 33.1802L26.4389 32.7965L28 33.8605L29.5611 32.7965L31.4186 33.1802L32.4564 31.6017L34.314 31.2442L34.6628 29.3866L36.25 28.3488L35.8663 26.5L36.9302 24.9302L35.8663 23.3692L36.25 21.5116L34.6628 20.4738L34.314 18.6163L32.4564 18.2674L31.4186 16.6802L29.5611 17.0727L28 16ZM28 18.7907C31.3908 18.7907 34.1395 21.5395 34.1395 24.9302C34.1395 28.321 31.3908 31.0698 28 31.0698C24.6092 31.0698 21.8605 28.321 21.8605 24.9302C21.8605 21.5395 24.6092 18.7907 28 18.7907ZM31.314 21.782L30.7384 22.3924L27.1105 26.2645L25.2093 24.5727L24.5814 24.0145L23.4651 25.2703L24.093 25.8198L26.6047 28.0523L27.2151 28.593L27.7733 28L31.9593 23.5349L32.5349 22.9244L31.314 21.782ZM20.6919 29.6308L16 36.9302L20.186 36.093L21.3023 40L25.1221 33.6337L24.6948 33.7209C24.4769 33.7688 24.2343 33.6709 24.1105 33.4854L23.2035 32.0988L21.5814 31.7849C21.3627 31.7434 21.1781 31.5588 21.1366 31.3401L20.8227 29.718L20.6919 29.6308ZM35.3081 29.6308L35.1773 29.718L34.8634 31.3401C34.8219 31.5588 34.6373 31.7434 34.4186 31.7849L32.7965 32.0988L31.8895 33.4854C31.7658 33.6709 31.523 33.7688 31.3052 33.7209L30.8779 33.6337L34.6977 40L35.814 36.093L40 36.9302L35.3081 29.6308Z" fill="#FFB55E"/>
</svg>
