<svg xmlns="http://www.w3.org/2000/svg" width="24" height="25" viewBox="0 0 24 25" fill="none">
<path d="M3 5.5V18.375C3 19.2038 3.32924 19.9987 3.91529 20.5847C4.50134 21.1708 5.2962 21.5 6.125 21.5H18.375C19.2038 21.5 19.9987 21.1708 20.5847 20.5847C21.1708 19.9987 21.5 19.2038 21.5 18.375V9.625C21.5 8.90464 21.2511 8.2064 20.7956 7.64837C20.3401 7.09034 19.7058 6.70676 19 6.5625V5.625C19 5.06141 18.7761 4.52091 18.3776 4.1224C17.9791 3.72388 17.4386 3.5 16.875 3.5H5.125C4.58302 3.49995 4.06151 3.707 3.66715 4.07877C3.27279 4.45055 3.03538 4.95896 3.0035 5.5H3ZM17.75 5.625V6.5H5.125C4.89294 6.5 4.67038 6.40781 4.50628 6.24372C4.34219 6.07962 4.25 5.85706 4.25 5.625C4.25 5.39294 4.34219 5.17038 4.50628 5.00628C4.67038 4.84219 4.89294 4.75 5.125 4.75H16.875C17.3585 4.75 17.75 5.142 17.75 5.625ZM16.125 13.5H18.375C18.5408 13.5 18.6997 13.5658 18.8169 13.6831C18.9342 13.8003 19 13.9592 19 14.125C19 14.2908 18.9342 14.4497 18.8169 14.5669C18.6997 14.6842 18.5408 14.75 18.375 14.75H16.125C15.9592 14.75 15.8003 14.6842 15.6831 14.5669C15.5658 14.4497 15.5 14.2908 15.5 14.125C15.5 13.9592 15.5658 13.8003 15.6831 13.6831C15.8003 13.5658 15.9592 13.5 16.125 13.5Z" fill="black"/>
</svg>