<svg width="28" height="28" viewBox="0 0 28 28" fill="none" xmlns="http://www.w3.org/2000/svg">
<rect width="28" height="28" rx="14" fill="black"/>
<path d="M13.9994 10.4094C12.0126 10.4094 10.4092 12.0129 10.4092 13.9997C10.4092 15.9866 12.0126 17.59 13.9994 17.59C15.9863 17.59 17.5897 15.9866 17.5897 13.9997C17.5897 12.0129 15.9863 10.4094 13.9994 10.4094ZM13.9994 16.3332C12.7146 16.3332 11.666 15.2846 11.666 13.9997C11.666 12.7149 12.7146 11.6663 13.9994 11.6663C15.2843 11.6663 16.3329 12.7149 16.3329 13.9997C16.3329 15.2846 15.2843 16.3332 13.9994 16.3332ZM17.7368 9.42566C17.2729 9.42566 16.8983 9.80027 16.8983 10.2642C16.8983 10.728 17.2729 11.1026 17.7368 11.1026C18.2007 11.1026 18.5753 10.7298 18.5753 10.2642C18.5754 10.154 18.5538 10.0449 18.5117 9.94311C18.4696 9.84132 18.4079 9.74883 18.33 9.67094C18.2521 9.59305 18.1596 9.5313 18.0578 9.48921C17.956 9.44712 17.8469 9.42552 17.7368 9.42566ZM20.998 13.9997C20.998 13.0335 21.0067 12.0759 20.9525 11.1114C20.8982 9.99107 20.6426 8.99679 19.8234 8.17755C19.0024 7.35656 18.0099 7.10274 16.8895 7.04848C15.9233 6.99421 14.9657 7.00296 14.0012 7.00296C13.0349 7.00296 12.0774 6.99421 11.1129 7.04848C9.99254 7.10274 8.99825 7.35831 8.17902 8.17755C7.35803 8.99854 7.10421 9.99107 7.04994 11.1114C6.99567 12.0777 7.00443 13.0352 7.00443 13.9997C7.00443 14.9643 6.99567 15.9235 7.04994 16.8881C7.10421 18.0084 7.35978 19.0027 8.17902 19.8219C9 20.6429 9.99254 20.8967 11.1129 20.951C12.0791 21.0053 13.0367 20.9965 14.0012 20.9965C14.9675 20.9965 15.925 21.0053 16.8895 20.951C18.0099 20.8967 19.0041 20.6411 19.8234 19.8219C20.6444 19.0009 20.8982 18.0084 20.9525 16.8881C21.0085 15.9235 20.998 14.966 20.998 13.9997ZM19.4575 18.1274C19.3297 18.446 19.1757 18.6841 18.9289 18.9292C18.682 19.176 18.4457 19.33 18.1271 19.4578C17.2064 19.8237 15.02 19.7414 13.9994 19.7414C12.9789 19.7414 10.7908 19.8237 9.87 19.4596C9.55141 19.3318 9.31334 19.1777 9.06827 18.9309C8.82145 18.6841 8.66741 18.4478 8.53962 18.1292C8.17552 17.2067 8.25779 15.0203 8.25779 13.9997C8.25779 12.9792 8.17552 10.7911 8.53962 9.87029C8.66741 9.5517 8.82145 9.31363 9.06827 9.06856C9.31509 8.82349 9.55141 8.66769 9.87 8.53991C10.7908 8.1758 12.9789 8.25807 13.9994 8.25807C15.02 8.25807 17.2081 8.1758 18.1289 8.53991C18.4475 8.66769 18.6855 8.82174 18.9306 9.06856C19.1774 9.31538 19.3315 9.5517 19.4593 9.87029C19.8234 10.7911 19.7411 12.9792 19.7411 13.9997C19.7411 15.0203 19.8234 17.2067 19.4575 18.1274Z" fill="white"/>
</svg>
