<svg width="28" height="28" viewBox="0 0 28 28" fill="none" xmlns="http://www.w3.org/2000/svg">
<rect width="28" height="28" rx="14" fill="black"/>
<path fill-rule="evenodd" clip-rule="evenodd" d="M9.80016 8.39983C9.80016 9.17308 9.17332 9.79991 8.40008 9.79991C7.62684 9.79991 7 9.17308 7 8.39983C7 7.62659 7.62684 6.99976 8.40008 6.99976C9.17332 6.99976 9.80016 7.62659 9.80016 8.39983ZM16.7998 11.1995C17.9137 11.1995 18.9821 11.642 19.7698 12.4297C20.5575 13.2174 21 14.2858 21 15.3998V20.3H18.1998V15.3998C18.1998 15.0284 18.0523 14.6723 17.7898 14.4098C17.5272 14.1472 17.1711 13.9997 16.7998 13.9997C16.4284 13.9997 16.0723 14.1472 15.8098 14.4098C15.5472 14.6723 15.3997 15.0284 15.3997 15.3998V20.3H12.5995V15.3998C12.5995 14.2858 13.0421 13.2174 13.8298 12.4297C14.6174 11.642 15.6858 11.1995 16.7998 11.1995ZM9.80016 20.3002V11.8998H7V20.3002H9.80016Z" fill="white"/>
</svg>
