<svg xmlns="http://www.w3.org/2000/svg" width="24" height="23" viewBox="0 0 24 23" fill="none">
<path d="M12 7.90625C11.2892 7.90625 10.5944 8.11702 10.0034 8.51191C9.41243 8.90679 8.95181 9.46806 8.67981 10.1247C8.4078 10.7814 8.33664 11.504 8.4753 12.2011C8.61397 12.8982 8.95624 13.5386 9.45883 14.0412C9.96143 14.5438 10.6018 14.886 11.2989 15.0247C11.996 15.1634 12.7186 15.0922 13.3753 14.8202C14.0319 14.5482 14.5932 14.0876 14.9881 13.4966C15.383 12.9056 15.5938 12.2108 15.5938 11.5C15.5938 10.5469 15.2151 9.63279 14.5412 8.95884C13.8672 8.28488 12.9531 7.90625 12 7.90625ZM12 13.6562C11.5735 13.6562 11.1566 13.5298 10.8021 13.2929C10.4475 13.0559 10.1711 12.7192 10.0079 12.3252C9.84468 11.9312 9.80198 11.4976 9.88518 11.0793C9.96838 10.6611 10.1737 10.2769 10.4753 9.9753C10.7769 9.67374 11.1611 9.46838 11.5793 9.38518C11.9976 9.30198 12.4312 9.34468 12.8252 9.50788C13.2192 9.67109 13.5559 9.94746 13.7929 10.3021C14.0298 10.6566 14.1562 11.0735 14.1562 11.5C14.1562 12.0719 13.9291 12.6203 13.5247 13.0247C13.1203 13.4291 12.5719 13.6562 12 13.6562ZM22.0625 5.03125H1.9375C1.74688 5.03125 1.56406 5.10698 1.42927 5.24177C1.29448 5.37656 1.21875 5.55938 1.21875 5.75V17.25C1.21875 17.4406 1.29448 17.6234 1.42927 17.7582C1.56406 17.893 1.74688 17.9688 1.9375 17.9688H22.0625C22.2531 17.9688 22.4359 17.893 22.5707 17.7582C22.7055 17.6234 22.7812 17.4406 22.7812 17.25V5.75C22.7812 5.55938 22.7055 5.37656 22.5707 5.24177C22.4359 5.10698 22.2531 5.03125 22.0625 5.03125ZM17.8982 16.5312H6.10176C5.86044 15.7151 5.41877 14.9723 4.81698 14.3705C4.21518 13.7687 3.47239 13.3271 2.65625 13.0857V9.91426C3.47239 9.67294 4.21518 9.23127 4.81698 8.62948C5.41877 8.02768 5.86044 7.28489 6.10176 6.46875H17.8982C18.1396 7.28489 18.5812 8.02768 19.183 8.62948C19.7848 9.23127 20.5276 9.67294 21.3438 9.91426V13.0857C20.5276 13.3271 19.7848 13.7687 19.183 14.3705C18.5812 14.9723 18.1396 15.7151 17.8982 16.5312ZM21.3438 8.38871C20.4816 8.01801 19.7945 7.33086 19.4238 6.46875H21.3438V8.38871ZM4.57621 6.46875C4.20551 7.33086 3.51836 8.01801 2.65625 8.38871V6.46875H4.57621ZM2.65625 14.6113C3.51836 14.982 4.20551 15.6691 4.57621 16.5312H2.65625V14.6113ZM19.4238 16.5312C19.7945 15.6691 20.4816 14.982 21.3438 14.6113V16.5312H19.4238Z" fill="black"/>
</svg>