<svg width="31" height="31" viewBox="0 0 31 31" fill="none" xmlns="http://www.w3.org/2000/svg">
<circle opacity="0.2" cx="15.3839" cy="15.3405" r="14.7628" fill="#05C699"/>
<path opacity="0.3" fill-rule="evenodd" clip-rule="evenodd" d="M11.0986 10.3792C10.8122 10.3024 10.5179 10.4724 10.4411 10.7588L8.81353 16.8331C8.73679 17.1195 8.90675 17.4138 9.19313 17.4906L20.601 20.5473C20.8874 20.624 21.1817 20.4541 21.2585 20.1677L22.8861 14.0934C22.9628 13.807 22.7928 13.5126 22.5065 13.4359L11.0986 10.3792ZM18.2196 16.0982C17.8688 17.4074 16.5231 18.1843 15.2139 17.8335C13.9048 17.4827 13.1279 16.1371 13.4786 14.8279C13.8294 13.5187 15.1751 12.7418 16.4843 13.0926C17.7934 13.4434 18.5704 14.7891 18.2196 16.0982Z" fill="#05C699"/>
<path fill-rule="evenodd" clip-rule="evenodd" d="M10.0915 11.5894C9.79503 11.5894 9.55469 11.8297 9.55469 12.1262V18.4148C9.55469 18.7113 9.79504 18.9516 10.0915 18.9516H21.9018C22.1983 18.9516 22.4386 18.7113 22.4386 18.4148V12.1262C22.4386 11.8297 22.1983 11.5894 21.9018 11.5894H10.0915ZM18.4515 15.2704C18.4515 16.6257 17.3528 17.7244 15.9974 17.7244C14.6421 17.7244 13.5433 16.6257 13.5433 15.2704C13.5433 13.915 14.6421 12.8163 15.9974 12.8163C17.3528 12.8163 18.4515 13.915 18.4515 15.2704ZM15.9966 16.4977C16.6742 16.4977 17.2236 15.9483 17.2236 15.2706C17.2236 14.593 16.6742 14.0436 15.9966 14.0436C15.3189 14.0436 14.7695 14.593 14.7695 15.2706C14.7695 15.9483 15.3189 16.4977 15.9966 16.4977Z" fill="#05C699"/>
</svg>
