<svg width="31" height="31" viewBox="0 0 31 31" fill="none" xmlns="http://www.w3.org/2000/svg">
<circle opacity="0.2" cx="15.3839" cy="15.3166" r="14.7628" fill="#584DCD"/>
<path opacity="0.3" fill-rule="evenodd" clip-rule="evenodd" d="M10.0142 8.06982C9.56951 8.06982 9.20898 8.43035 9.20898 8.87507V8.98244C9.20898 9.42716 9.56951 9.78768 10.0142 9.78768H11.7854V19.2896C11.7854 19.7343 12.1459 20.0948 12.5906 20.0948H12.6447V20.1488C12.6447 20.5936 13.0052 20.9541 13.4499 20.9541H21.2877C21.7324 20.9541 22.0929 20.5936 22.0929 20.1488V20.0415C22.0929 19.5967 21.7324 19.2362 21.2877 19.2362H13.5032V9.00797C13.5035 8.99949 13.5036 8.99098 13.5036 8.98244V8.87507C13.5036 8.43035 13.1431 8.06982 12.6984 8.06982H12.698H12.5906H10.0142Z" fill="#584DCD"/>
<rect opacity="0.3" x="15.2207" y="10.6465" width="6.87143" height="6.87143" rx="0.805246" fill="#584DCD"/>
<path fill-rule="evenodd" clip-rule="evenodd" d="M12.6432 22.6712C14.0663 22.6712 15.22 21.5175 15.22 20.0944C15.22 18.6712 14.0663 17.5176 12.6432 17.5176C11.2201 17.5176 10.0664 18.6712 10.0664 20.0944C10.0664 21.5175 11.2201 22.6712 12.6432 22.6712Z" fill="#584DCD"/>
</svg>
