<svg width="31" height="31" viewBox="0 0 31 31" fill="none" xmlns="http://www.w3.org/2000/svg">
<circle opacity="0.2" cx="15.3839" cy="15.632" r="14.7628" fill="#C85D3B"/>
<path opacity="0.3" fill-rule="evenodd" clip-rule="evenodd" d="M11.0986 10.6712C10.8122 10.5944 10.5179 10.7644 10.4411 11.0508L8.81353 17.1251C8.73679 17.4115 8.90675 17.7058 9.19313 17.7826L20.601 20.8393C20.8874 20.916 21.1817 20.7461 21.2585 20.4597L22.8861 14.3854C22.9628 14.099 22.7928 13.8046 22.5065 13.7279L11.0986 10.6712ZM18.2196 16.3902C17.8688 17.6994 16.5231 18.4763 15.2139 18.1255C13.9048 17.7747 13.1279 16.4291 13.4786 15.1199C13.8294 13.8107 15.1751 13.0338 16.4843 13.3846C17.7934 13.7354 18.5704 15.081 18.2196 16.3902Z" fill="#C85D3B"/>
<path fill-rule="evenodd" clip-rule="evenodd" d="M10.0915 11.8813C9.79503 11.8813 9.55469 12.1217 9.55469 12.4182V18.7068C9.55469 19.0033 9.79504 19.2436 10.0915 19.2436H21.9018C22.1983 19.2436 22.4386 19.0033 22.4386 18.7068V12.4182C22.4386 12.1217 22.1983 11.8813 21.9018 11.8813H10.0915ZM18.4515 15.5624C18.4515 16.9177 17.3528 18.0164 15.9974 18.0164C14.6421 18.0164 13.5433 16.9177 13.5433 15.5624C13.5433 14.207 14.6421 13.1083 15.9974 13.1083C17.3528 13.1083 18.4515 14.207 18.4515 15.5624ZM15.9966 16.7895C16.6742 16.7895 17.2236 16.2401 17.2236 15.5624C17.2236 14.8847 16.6742 14.3354 15.9966 14.3354C15.3189 14.3354 14.7695 14.8847 14.7695 15.5624C14.7695 16.2401 15.3189 16.7895 15.9966 16.7895Z" fill="#C85D3B"/>
</svg>
