<svg width="31" height="30" viewBox="0 0 31 30" fill="none" xmlns="http://www.w3.org/2000/svg">
<circle opacity="0.2" cx="15.3839" cy="15.237" r="14.7628" fill="#FFB55E"/>
<path d="M15.651 9.06299L14.8129 9.63883L13.8157 9.42816L13.2586 10.2802L12.2614 10.4675L12.0742 11.4647L11.2221 12.0218L11.4281 13.019L10.8569 13.857L11.4281 14.6997L11.2221 15.6922L12.0742 16.2493L12.2614 17.2465L13.2586 17.4385L13.8157 18.2859L14.8129 18.0799L15.651 18.651L16.489 18.0799L17.4862 18.2859L18.0433 17.4385L19.0405 17.2465L19.2277 16.2493L20.0798 15.6922L19.8738 14.6997L20.445 13.857L19.8738 13.019L20.0798 12.0218L19.2277 11.4647L19.0405 10.4675L18.0433 10.2802L17.4862 9.42816L16.489 9.63883L15.651 9.06299ZM15.651 10.5611C17.4712 10.5611 18.9468 12.0367 18.9468 13.857C18.9468 15.6773 17.4712 17.1529 15.651 17.1529C13.8307 17.1529 12.3551 15.6773 12.3551 13.857C12.3551 12.0367 13.8307 10.5611 15.651 10.5611ZM17.43 12.1669L17.121 12.4946L15.1734 14.5733L14.1528 13.6651L13.8157 13.3654L13.2165 14.0396L13.5536 14.3345L14.9019 15.533L15.2296 15.8233L15.5292 15.505L17.7764 13.1079L18.0854 12.7802L17.43 12.1669ZM11.7277 16.3804L9.20898 20.299L11.4562 19.8495L12.0554 21.9469L14.106 18.5293L13.8766 18.5761C13.7597 18.6018 13.6294 18.5493 13.5629 18.4497L13.076 17.7053L12.2052 17.5368C12.0878 17.5146 11.9887 17.4154 11.9665 17.298L11.7979 16.4272L11.7277 16.3804ZM19.5742 16.3804L19.504 16.4272L19.3354 17.298C19.3132 17.4154 19.2141 17.5146 19.0967 17.5368L18.2259 17.7053L17.739 18.4497C17.6725 18.5493 17.5422 18.6018 17.4253 18.5761L17.1959 18.5293L19.2465 21.9469L19.8457 19.8495L22.0929 20.299L19.5742 16.3804Z" fill="#FFB55E"/>
</svg>
