<svg width="61" height="56" viewBox="0 0 61 56" fill="none" xmlns="http://www.w3.org/2000/svg">
<rect width="61" height="56" rx="6.81081" fill="#B3EBB5" fill-opacity="0.5"/>
<path fill-rule="evenodd" clip-rule="evenodd" d="M41.1042 30.5703V35.0013C41.1042 36.2249 40.1405 37.2168 38.9518 37.2168H21.7325C20.5437 37.2168 19.5801 36.2249 19.5801 35.0013L19.5801 30.5703H24.1854L24.771 32.3787C25.064 33.2833 25.8865 33.8936 26.813 33.8936H33.9818C34.7971 33.8936 35.5424 33.4194 35.907 32.6689L36.9264 30.5703L41.1042 30.5703Z" fill="#333333"/>
<path opacity="0.3" fill-rule="evenodd" clip-rule="evenodd" d="M20.1875 28.3538L23.8079 21.7289C24.1891 21.0313 24.9063 20.5996 25.6839 20.5996H35.0045C35.7821 20.5996 36.4992 21.0313 36.8805 21.7289L40.5009 28.3538H36.9284C36.1132 28.3538 35.3679 28.828 35.0033 29.5785L33.9839 31.6771H26.8151L26.2294 29.8687C25.9365 28.9641 25.1139 28.3538 24.1875 28.3538H20.1875Z" fill="#333333"/>
</svg>
