<svg xmlns="http://www.w3.org/2000/svg" width="24" height="23" viewBox="0 0 24 23" fill="none">
<path d="M20.924 2.57696C20.7432 2.39631 20.5176 2.26712 20.2703 2.20269C20.023 2.13826 19.763 2.14092 19.517 2.2104H19.5036L2.25895 7.44289C1.97824 7.52362 1.72878 7.68795 1.54379 7.91399C1.3588 8.14004 1.24707 8.41707 1.22346 8.7082C1.19984 8.99933 1.26548 9.29075 1.41163 9.54365C1.55777 9.79655 1.77749 9.99892 2.04153 10.1238L9.73395 13.767L13.3771 21.4594C13.4921 21.7058 13.6752 21.9141 13.9048 22.0597C14.1343 22.2054 14.4008 22.2823 14.6727 22.2815C14.714 22.2815 14.7553 22.2797 14.7966 22.2761C15.0868 22.2526 15.3627 22.141 15.5876 21.9561C15.8124 21.7713 15.9753 21.5221 16.0545 21.242L21.2834 3.99739C21.2834 3.9929 21.2834 3.9884 21.2834 3.98391C21.3537 3.7386 21.3576 3.47898 21.2944 3.23172C21.2312 2.98446 21.1034 2.75846 20.924 2.57696ZM14.6807 20.8305L14.6763 20.8431L11.14 13.378L15.3842 9.13286C15.5133 8.99697 15.5842 8.81602 15.5818 8.6286C15.5794 8.44118 15.5039 8.26211 15.3714 8.12957C15.2388 7.99703 15.0598 7.92151 14.8723 7.91911C14.6849 7.91671 14.504 7.98762 14.3681 8.11672L10.123 12.3609L2.65696 8.82469H2.66954L19.907 3.59399L14.6807 20.8305Z" fill="black"/>
</svg>