<svg width="28" height="28" viewBox="0 0 28 28" fill="none" xmlns="http://www.w3.org/2000/svg">
<rect width="28" height="28" rx="14" fill="black"/>
<path d="M21.7146 9.22112C21.1471 9.46591 20.5296 9.64209 19.8935 9.71071C20.5539 9.31836 21.0485 8.69851 21.2844 7.96746C20.6647 8.33612 19.9858 8.59463 19.2778 8.73152C18.9819 8.41519 18.624 8.16319 18.2265 7.99122C17.8289 7.81924 17.4002 7.73098 16.9671 7.73194C15.2145 7.73194 13.8051 9.1525 13.8051 10.8957C13.8051 11.1405 13.8348 11.3853 13.883 11.6209C11.2589 11.4836 8.91847 10.23 7.36253 8.31055C7.07902 8.79479 6.93045 9.34616 6.93228 9.90729C6.93228 11.0052 7.49049 11.9732 8.34171 12.5426C7.84008 12.5228 7.35018 12.3849 6.91188 12.1401V12.1791C6.91188 13.7165 7.99863 14.9905 9.44701 15.2835C9.17506 15.3542 8.8953 15.3903 8.61433 15.3911C8.40848 15.3911 8.21375 15.3707 8.01717 15.3429C8.41775 16.5965 9.58424 17.5071 10.9733 17.5368C9.88653 18.388 8.52531 18.8887 7.04726 18.8887C6.78207 18.8887 6.53727 18.8794 6.2832 18.8498C7.68522 19.7492 9.34872 20.2685 11.1402 20.2685C16.9559 20.2685 20.1383 15.4504 20.1383 11.2685C20.1383 11.1313 20.1383 10.994 20.129 10.8568C20.7447 10.4062 21.2844 9.84794 21.7146 9.22112Z" fill="white"/>
</svg>
