<svg xmlns="http://www.w3.org/2000/svg" width="24" height="23" viewBox="0 0 24 23" fill="none">
<path d="M12.9359 18.3293C12.9359 18.5425 12.8727 18.751 12.7542 18.9283C12.6357 19.1056 12.4673 19.2437 12.2703 19.3253C12.0733 19.4069 11.8566 19.4283 11.6474 19.3867C11.4383 19.3451 11.2462 19.2424 11.0954 19.0916C10.9446 18.9409 10.842 18.7488 10.8004 18.5396C10.7588 18.3305 10.7801 18.1137 10.8617 17.9167C10.9433 17.7197 11.0815 17.5513 11.2588 17.4329C11.4361 17.3144 11.6445 17.2512 11.8578 17.2512C12.1437 17.2512 12.4179 17.3648 12.6201 17.5669C12.8223 17.7691 12.9359 18.0434 12.9359 18.3293ZM21.6579 7.81757C18.8948 5.55115 15.4315 4.3125 11.8578 4.3125C8.28402 4.3125 4.82075 5.55115 2.05761 7.81757C1.98463 7.87751 1.92418 7.95123 1.8797 8.03453C1.83521 8.11783 1.80758 8.20907 1.79836 8.30305C1.78914 8.39704 1.79852 8.49191 1.82597 8.58227C1.85342 8.67262 1.89839 8.75669 1.95833 8.82966C2.01826 8.90263 2.09199 8.96309 2.17529 9.00757C2.25859 9.05205 2.34983 9.07969 2.44381 9.08891C2.63362 9.10753 2.82304 9.04998 2.97042 8.92894C5.47635 6.87395 8.61698 5.75088 11.8578 5.75088C15.0985 5.75088 18.2392 6.87395 20.7451 8.92894C20.8925 9.04998 21.0819 9.10753 21.2717 9.08891C21.4615 9.07029 21.6361 8.97704 21.7572 8.82966C21.8782 8.68228 21.9358 8.49286 21.9172 8.30305C21.8986 8.11325 21.8053 7.93862 21.6579 7.81757ZM18.7757 11.0313C16.8076 9.47305 14.3708 8.62522 11.8605 8.62522C9.35012 8.62522 6.91336 9.47305 4.94518 11.0313C4.79578 11.1497 4.69954 11.3226 4.67764 11.512C4.65574 11.7014 4.70996 11.8917 4.82839 12.0411C4.94681 12.1905 5.11974 12.2868 5.30912 12.3087C5.4985 12.3306 5.68883 12.2763 5.83823 12.1579C7.55232 10.8011 9.67436 10.0629 11.8605 10.0629C14.0466 10.0629 16.1686 10.8011 17.8827 12.1579C17.9567 12.2166 18.0415 12.2601 18.1322 12.2859C18.223 12.3118 18.318 12.3195 18.4118 12.3087C18.5056 12.2979 18.5963 12.2686 18.6788 12.2227C18.7613 12.1768 18.8339 12.1151 18.8925 12.0411C18.9512 11.9672 18.9947 11.8824 19.0205 11.7916C19.0464 11.7008 19.0542 11.6058 19.0433 11.512C19.0325 11.4182 19.0032 11.3275 18.9573 11.245C18.9114 11.1625 18.8497 11.0899 18.7757 11.0313ZM15.8774 14.2441C14.7099 13.3956 13.3037 12.9386 11.8605 12.9386C10.4172 12.9386 9.01103 13.3956 7.84354 14.2441C7.68938 14.3563 7.58611 14.5252 7.55645 14.7136C7.5268 14.9019 7.57319 15.0944 7.68542 15.2485C7.79765 15.4027 7.96652 15.506 8.1549 15.5356C8.34327 15.5653 8.5357 15.5189 8.68987 15.4067C9.61123 14.7366 10.7212 14.3757 11.8605 14.3757C12.9997 14.3757 14.1097 14.7366 15.031 15.4067C15.1074 15.4622 15.1939 15.5022 15.2857 15.5244C15.3775 15.5465 15.4727 15.5503 15.566 15.5356C15.6593 15.521 15.7488 15.488 15.8293 15.4388C15.9099 15.3895 15.9799 15.3249 16.0355 15.2485C16.0911 15.1722 16.1311 15.0857 16.1532 14.9939C16.1753 14.9021 16.1791 14.8068 16.1645 14.7136C16.1498 14.6203 16.1169 14.5308 16.0676 14.4503C16.0184 14.3697 15.9537 14.2997 15.8774 14.2441Z" fill="black"/>
</svg>