<svg xmlns="http://www.w3.org/2000/svg" width="53" height="49" viewBox="0 0 53 49" fill="none">
<rect y="0.5" width="52.2857" height="48" rx="6.81081" fill="#05C699" fill-opacity="0.2"/>
<path d="M28.736 11.4514C28.5312 11.284 28.2953 11.1589 28.0418 11.0834C27.7883 11.0078 27.5224 10.9833 27.2594 11.0112C26.9964 11.0391 26.7415 11.1189 26.5095 11.2459C26.2776 11.373 26.0731 11.5448 25.908 11.7514L20.116 19.0074H22.676L27.47 12.9994L29.01 14.2574L25.15 19.0074H27.726L30.56 15.5194L33.996 18.3254L33.4 19.0074H34C34.5964 19.0068 35.1896 19.0951 35.76 19.2694C35.9779 18.8607 36.0471 18.389 35.956 17.9348C35.8648 17.4807 35.6188 17.0723 35.26 16.7794L28.736 11.4514ZM16 20.0074C16 19.7422 16.1054 19.4878 16.2929 19.3003C16.4804 19.1128 16.7348 19.0074 17 19.0074H18.116L19.706 17.0074H17C16.2044 17.0074 15.4413 17.3235 14.8787 17.8861C14.3161 18.4487 14 19.2117 14 20.0074V32.0074C14 33.3335 14.5268 34.6052 15.4645 35.5429C16.4021 36.4806 17.6739 37.0074 19 37.0074H34C35.0609 37.0074 36.0783 36.586 36.8284 35.8358C37.5786 35.0857 38 34.0683 38 33.0074V25.0074C38 23.9465 37.5786 22.9291 36.8284 22.179C36.0783 21.4288 35.0609 21.0074 34 21.0074H17C16.7348 21.0074 16.4804 20.902 16.2929 20.7145C16.1054 20.527 16 20.2726 16 20.0074ZM31 29.0074H33C33.2652 29.0074 33.5196 29.1128 33.7071 29.3003C33.8946 29.4878 34 29.7422 34 30.0074C34 30.2726 33.8946 30.527 33.7071 30.7145C33.5196 30.902 33.2652 31.0074 33 31.0074H31C30.7348 31.0074 30.4804 30.902 30.2929 30.7145C30.1054 30.527 30 30.2726 30 30.0074C30 29.7422 30.1054 29.4878 30.2929 29.3003C30.4804 29.1128 30.7348 29.0074 31 29.0074Z" fill="black"/>
</svg>