<svg width="28" height="28" viewBox="0 0 28 28" fill="none" xmlns="http://www.w3.org/2000/svg">
<rect width="28" height="28" rx="14" fill="black"/>
<path fill-rule="evenodd" clip-rule="evenodd" d="M20.2607 9.50524C20.4774 9.72867 20.6314 10.0053 20.7069 10.3073C20.9088 11.4262 21.0068 12.5615 20.9996 13.6984C21.0036 14.8184 20.9057 15.9365 20.7069 17.0387C20.6314 17.3407 20.4774 17.6173 20.2607 17.8407C20.044 18.0642 19.7721 18.2265 19.4726 18.3112C18.3783 18.6039 14.001 18.6039 14.001 18.6039C14.001 18.6039 9.62363 18.6039 8.52929 18.3112C8.23587 18.2309 7.96812 18.0763 7.7519 17.8623C7.53568 17.6483 7.37831 17.3822 7.29499 17.0896C7.09315 15.9707 6.99518 14.8354 7.00232 13.6984C6.99674 12.57 7.09471 11.4433 7.29499 10.3327C7.37057 10.0308 7.52449 9.75412 7.74121 9.53069C7.95794 9.30726 8.22978 9.14499 8.52929 9.06025C9.62363 8.76758 14.001 8.76758 14.001 8.76758C14.001 8.76758 18.3783 8.76758 19.4726 9.0348C19.7721 9.11954 20.044 9.28181 20.2607 9.50524ZM16.2277 13.6987L12.5693 15.7792V11.6182L16.2277 13.6987Z" fill="white"/>
</svg>
