<svg width="19" height="19" viewBox="0 0 19 19" fill="none" xmlns="http://www.w3.org/2000/svg">
              <g clip-path="url(#clip0_10741_6052)">
              <path d="M13.3908 15.7992V14.3136C13.3908 13.5256 13.0777 12.7698 12.5205 12.2126C11.9633 11.6554 11.2075 11.3424 10.4195 11.3424H4.47708C3.68907 11.3424 2.93332 11.6554 2.37611 12.2126C1.8189 12.7698 1.50586 13.5256 1.50586 14.3136V15.7992M17.8476 15.7992V14.3136C17.8471 13.6553 17.628 13.0158 17.2246 12.4955C16.8213 11.9751 16.2566 11.6035 15.6192 11.4389M12.6479 2.52528C13.2871 2.68892 13.8535 3.06062 14.2581 3.58178C14.6626 4.10294 14.8822 4.74391 14.8822 5.40365C14.8822 6.06339 14.6626 6.70436 14.2581 7.22552C13.8535 7.74668 13.2871 8.11838 12.6479 8.28202M10.4195 5.39993C10.4195 7.0409 9.08927 8.37116 7.44831 8.37116C5.80735 8.37116 4.47708 7.0409 4.47708 5.39993C4.47708 3.75897 5.80735 2.42871 7.44831 2.42871C9.08927 2.42871 10.4195 3.75897 10.4195 5.39993Z" stroke="#101828" stroke-width="2" stroke-linecap="round" stroke-linejoin="round"/>
              </g>
              <defs>
              <clipPath id="clip0_10741_6052">
              <rect width="17.8273" height="17.8273" fill="white" transform="translate(0.763672 0.200195)"/>
              </clipPath>
              </defs>
              </svg>