<svg width="19" height="19" viewBox="0 0 19 19" fill="none" xmlns="http://www.w3.org/2000/svg">
<path d="M16.9203 7.09551C16.9206 7.04371 16.9135 6.99213 16.8994 6.9423L15.9001 3.44647C15.8329 3.21452 15.6925 3.01051 15.4998 2.86492C15.3072 2.71933 15.0726 2.63996 14.8311 2.63867H4.52469C4.28321 2.63996 4.04862 2.71933 3.85597 2.86492C3.66331 3.01051 3.52291 3.21452 3.45574 3.44647L2.45714 6.9423C2.44275 6.9921 2.43548 7.04368 2.43555 7.09551V8.20972C2.43555 8.64215 2.53623 9.06866 2.72962 9.45544C2.92302 9.84222 3.20381 10.1787 3.54976 10.4381V14.895C3.54976 15.1905 3.66715 15.4739 3.8761 15.6828C4.08505 15.8918 4.36846 16.0092 4.66396 16.0092H14.6918C14.9874 16.0092 15.2708 15.8918 15.4797 15.6828C15.6887 15.4739 15.8061 15.1905 15.8061 14.895V10.4381C16.152 10.1787 16.4328 9.84222 16.6262 9.45544C16.8196 9.06866 16.9203 8.64215 16.9203 8.20972V7.09551ZM4.52469 3.75288H14.8311L15.6264 6.5384H3.73151L4.52469 3.75288ZM8.00659 7.65261H11.3492V8.20972C11.3492 8.65298 11.1731 9.07808 10.8597 9.39151C10.5463 9.70495 10.1212 9.88103 9.6779 9.88103C9.23464 9.88103 8.80954 9.70495 8.49611 9.39151C8.18268 9.07808 8.00659 8.65298 8.00659 8.20972V7.65261ZM6.89238 7.65261V8.20972C6.89238 8.65298 6.7163 9.07808 6.40287 9.39151C6.08943 9.70495 5.66433 9.88103 5.22107 9.88103C4.77781 9.88103 4.3527 9.70495 4.03927 9.39151C3.72584 9.07808 3.54976 8.65298 3.54976 8.20972V7.65261H6.89238ZM14.6918 14.895H4.66396V10.9395C4.84736 10.9765 5.03398 10.9952 5.22107 10.9952C5.65351 10.9952 6.08001 10.8946 6.46679 10.7012C6.85358 10.5078 7.19002 10.227 7.44949 9.88103C7.70895 10.227 8.0454 10.5078 8.43218 10.7012C8.81897 10.8946 9.24547 10.9952 9.6779 10.9952C10.1103 10.9952 10.5368 10.8946 10.9236 10.7012C11.3104 10.5078 11.6469 10.227 11.9063 9.88103C12.1658 10.227 12.5022 10.5078 12.889 10.7012C13.2758 10.8946 13.7023 10.9952 14.1347 10.9952C14.3218 10.9952 14.5084 10.9765 14.6918 10.9395V14.895ZM14.1347 9.88103C13.6915 9.88103 13.2664 9.70495 12.9529 9.39151C12.6395 9.07808 12.4634 8.65298 12.4634 8.20972V7.65261H15.8061V8.20972C15.8061 8.65298 15.63 9.07808 15.3165 9.39151C15.0031 9.70495 14.578 9.88103 14.1347 9.88103Z" fill="black"/>
</svg>
