<svg width="36" height="32" viewBox="0 0 36 32" fill="none" xmlns="http://www.w3.org/2000/svg">
<path d="M35.333 29.4375L19.083 1.3125C18.8408 0.894531 18.4229 0.6875 18.001 0.6875C17.5791 0.6875 17.1572 0.894531 16.919 1.3125L0.668959 29.4375C0.18849 30.2734 0.790052 31.3125 1.75099 31.3125H34.251C35.2119 31.3125 35.8135 30.2734 35.333 29.4375ZM16.751 12.25C16.751 12.0781 16.8916 11.9375 17.0635 11.9375H18.9385C19.1104 11.9375 19.251 12.0781 19.251 12.25V19.4375C19.251 19.6094 19.1104 19.75 18.9385 19.75H17.0635C16.8916 19.75 16.751 19.6094 16.751 19.4375V12.25ZM18.001 26C17.5103 25.99 17.0432 25.788 16.6997 25.4375C16.3562 25.087 16.1639 24.6158 16.1639 24.125C16.1639 23.6342 16.3562 23.163 16.6997 22.8125C17.0432 22.462 17.5103 22.26 18.001 22.25C18.4916 22.26 18.9588 22.462 19.3023 22.8125C19.6457 23.163 19.8381 23.6342 19.8381 24.125C19.8381 24.6158 19.6457 25.087 19.3023 25.4375C18.9588 25.788 18.4916 25.99 18.001 26Z" fill="#CBCB64"/>
</svg>
