<svg width="20" height="20" viewBox="0 0 20 20" fill="none" xmlns="http://www.w3.org/2000/svg">
<g id="Automobile">
<path id="Vector" d="M18.75 8.74902H17.9062L15.7359 3.86621C15.6377 3.64529 15.4775 3.4576 15.2748 3.32587C15.0721 3.19414 14.8355 3.12403 14.5937 3.12402H5.40625C5.16448 3.12403 4.92791 3.19414 4.72518 3.32587C4.52245 3.4576 4.36228 3.64529 4.26406 3.86621L2.09375 8.74902H1.25C1.08424 8.74902 0.925268 8.81487 0.808058 8.93208C0.690848 9.04929 0.625 9.20826 0.625 9.37402C0.625 9.53978 0.690848 9.69875 0.808058 9.81597C0.925268 9.93318 1.08424 9.99902 1.25 9.99902H1.875V16.249C1.875 16.5805 2.0067 16.8985 2.24112 17.1329C2.47554 17.3673 2.79348 17.499 3.125 17.499H5C5.33152 17.499 5.64946 17.3673 5.88388 17.1329C6.1183 16.8985 6.25 16.5805 6.25 16.249V14.999H13.75V16.249C13.75 16.5805 13.8817 16.8985 14.1161 17.1329C14.3505 17.3673 14.6685 17.499 15 17.499H16.875C17.2065 17.499 17.5245 17.3673 17.7589 17.1329C17.9933 16.8985 18.125 16.5805 18.125 16.249V9.99902H18.75C18.9158 9.99902 19.0747 9.93318 19.1919 9.81597C19.3092 9.69875 19.375 9.53978 19.375 9.37402C19.375 9.20826 19.3092 9.04929 19.1919 8.93208C19.0747 8.81487 18.9158 8.74902 18.75 8.74902ZM5.40625 4.37402H14.5937L16.5383 8.74902H3.46172L5.40625 4.37402ZM5 16.249H3.125V14.999H5V16.249ZM15 16.249V14.999H16.875V16.249H15ZM16.875 13.749H3.125V9.99902H16.875V13.749ZM4.375 11.874C4.375 11.7083 4.44085 11.5493 4.55806 11.4321C4.67527 11.3149 4.83424 11.249 5 11.249H6.25C6.41576 11.249 6.57473 11.3149 6.69194 11.4321C6.80915 11.5493 6.875 11.7083 6.875 11.874C6.875 12.0398 6.80915 12.1988 6.69194 12.316C6.57473 12.4332 6.41576 12.499 6.25 12.499H5C4.83424 12.499 4.67527 12.4332 4.55806 12.316C4.44085 12.1988 4.375 12.0398 4.375 11.874ZM13.125 11.874C13.125 11.7083 13.1908 11.5493 13.3081 11.4321C13.4253 11.3149 13.5842 11.249 13.75 11.249H15C15.1658 11.249 15.3247 11.3149 15.4419 11.4321C15.5592 11.5493 15.625 11.7083 15.625 11.874C15.625 12.0398 15.5592 12.1988 15.4419 12.316C15.3247 12.4332 15.1658 12.499 15 12.499H13.75C13.5842 12.499 13.4253 12.4332 13.3081 12.316C13.1908 12.1988 13.125 12.0398 13.125 11.874Z" fill="black"/>
</g>
</svg>
