<svg width="20" height="20" viewBox="0 0 20 20" fill="none" xmlns="http://www.w3.org/2000/svg">
<g id="Baby">
<path id="Vector" d="M7.1875 10.9365C7.00208 10.9365 6.82083 10.8815 6.66666 10.7785C6.51249 10.6755 6.39232 10.5291 6.32137 10.3578C6.25041 10.1865 6.23184 9.99798 6.26802 9.81613C6.30419 9.63427 6.39348 9.46722 6.52459 9.33611C6.6557 9.205 6.82275 9.11571 7.00461 9.07954C7.18646 9.04336 7.37496 9.06193 7.54627 9.13289C7.71757 9.20384 7.86399 9.324 7.96701 9.47818C8.07002 9.63235 8.125 9.8136 8.125 9.99902C8.125 10.2477 8.02623 10.4861 7.85042 10.6619C7.6746 10.8378 7.43614 10.9365 7.1875 10.9365ZM12.8125 9.06152C12.6271 9.06152 12.4458 9.11651 12.2917 9.21952C12.1375 9.32253 12.0173 9.46895 11.9464 9.64026C11.8754 9.81156 11.8568 10.0001 11.893 10.1819C11.9292 10.3638 12.0185 10.5308 12.1496 10.6619C12.2807 10.793 12.4477 10.8823 12.6296 10.9185C12.8115 10.9547 13 10.9361 13.1713 10.8652C13.3426 10.7942 13.489 10.674 13.592 10.5199C13.695 10.3657 13.75 10.1844 13.75 9.99902C13.75 9.75038 13.6512 9.51193 13.4754 9.33611C13.2996 9.16029 13.0611 9.06152 12.8125 9.06152ZM11.8539 12.5951C11.2973 12.9406 10.6551 13.1237 10 13.1237C9.34486 13.1237 8.70275 12.9406 8.1461 12.5951C8.00582 12.5066 7.83615 12.4775 7.6744 12.5141C7.51265 12.5508 7.37207 12.6502 7.2836 12.7904C7.19512 12.9307 7.166 13.1004 7.20262 13.2621C7.23925 13.4239 7.33863 13.5645 7.47891 13.6529C8.23527 14.1244 9.10871 14.3744 10 14.3744C10.8913 14.3744 11.7647 14.1244 12.5211 13.6529C12.6614 13.5645 12.7608 13.4239 12.7974 13.2621C12.834 13.1004 12.8049 12.9307 12.7164 12.7904C12.6279 12.6502 12.4874 12.5508 12.3256 12.5141C12.1639 12.4775 11.9942 12.5066 11.8539 12.5951ZM18.125 9.99902C18.125 11.606 17.6485 13.1769 16.7557 14.513C15.8629 15.8492 14.594 16.8906 13.1093 17.5055C11.6247 18.1205 9.99099 18.2814 8.41489 17.9679C6.8388 17.6544 5.39106 16.8806 4.25476 15.7443C3.11846 14.608 2.34463 13.1602 2.03112 11.5841C1.71762 10.008 1.87852 8.37437 2.49348 6.88972C3.10844 5.40507 4.14985 4.13612 5.486 3.24333C6.82214 2.35055 8.39303 1.87402 10 1.87402C12.1542 1.8763 14.2195 2.73305 15.7427 4.25629C17.266 5.77953 18.1227 7.84484 18.125 9.99902ZM16.875 9.99902C16.8728 8.22922 16.1891 6.52824 14.9657 5.24932C13.7424 3.9704 12.0734 3.2118 10.3055 3.13105C9.4 4.40371 9.375 5.61465 9.375 5.62402C9.375 5.78978 9.44085 5.94875 9.55806 6.06596C9.67527 6.18318 9.83424 6.24902 10 6.24902C10.1658 6.24902 10.3247 6.18318 10.4419 6.06596C10.5592 5.94875 10.625 5.78978 10.625 5.62402C10.625 5.45826 10.6909 5.29929 10.8081 5.18208C10.9253 5.06487 11.0842 4.99902 11.25 4.99902C11.4158 4.99902 11.5747 5.06487 11.6919 5.18208C11.8092 5.29929 11.875 5.45826 11.875 5.62402C11.875 6.1213 11.6775 6.59822 11.3258 6.94985C10.9742 7.30148 10.4973 7.49902 10 7.49902C9.50272 7.49902 9.02581 7.30148 8.67418 6.94985C8.32255 6.59822 8.125 6.1213 8.125 5.62402C8.125 5.56699 8.13516 4.50684 8.78594 3.23105C7.49872 3.462 6.30407 4.05529 5.34217 4.94131C4.38028 5.82733 3.69105 6.96932 3.35536 8.23327C3.01967 9.49723 3.05144 10.8307 3.44696 12.0772C3.84247 13.3238 4.58532 14.4316 5.58833 15.2708C6.59133 16.11 7.81289 16.6457 9.10965 16.8151C10.4064 16.9845 11.7246 16.7805 12.9095 16.227C14.0944 15.6736 15.0968 14.7937 15.7992 13.6905C16.5016 12.5874 16.8748 11.3068 16.875 9.99902Z" fill="black"/>
</g>
</svg>
