<svg width="53" height="48" viewBox="0 0 53 48" fill="none" xmlns="http://www.w3.org/2000/svg">
<rect x="0.214844" width="52.2857" height="48" rx="6.81081" fill="#FCCF00" fill-opacity="0.1"/>
<path d="M27.9359 30.3281C27.9359 30.5413 27.8727 30.7497 27.7542 30.927C27.6357 31.1043 27.4673 31.2425 27.2703 31.3241C27.0733 31.4057 26.8566 31.4271 26.6474 31.3855C26.4383 31.3439 26.2462 31.2412 26.0954 31.0904C25.9446 30.9396 25.842 30.7475 25.8004 30.5384C25.7588 30.3293 25.7801 30.1125 25.8617 29.9155C25.9433 29.7185 26.0815 29.5501 26.2588 29.4316C26.4361 29.3132 26.6445 29.2499 26.8578 29.2499C27.1437 29.2499 27.4179 29.3635 27.6201 29.5657C27.8223 29.7679 27.9359 30.0421 27.9359 30.3281ZM36.6579 19.8163C33.8948 17.5499 30.4315 16.3113 26.8578 16.3113C23.284 16.3113 19.8208 17.5499 17.0576 19.8163C16.9846 19.8763 16.9242 19.95 16.8797 20.0333C16.8352 20.1166 16.8076 20.2079 16.7984 20.3018C16.7891 20.3958 16.7985 20.4907 16.826 20.581C16.8534 20.6714 16.8984 20.7555 16.9583 20.8284C17.0183 20.9014 17.092 20.9619 17.1753 21.0063C17.2586 21.0508 17.3498 21.0785 17.4438 21.0877C17.6336 21.1063 17.823 21.0488 17.9704 20.9277C20.4763 18.8727 23.617 17.7497 26.8578 17.7497C30.0985 17.7497 33.2392 18.8727 35.7451 20.9277C35.8925 21.0488 36.0819 21.1063 36.2717 21.0877C36.4615 21.0691 36.6361 20.9758 36.7572 20.8284C36.8782 20.6811 36.9358 20.4916 36.9172 20.3018C36.8985 20.112 36.8053 19.9374 36.6579 19.8163ZM33.7757 23.0301C31.8076 21.4718 29.3708 20.624 26.8605 20.624C24.3501 20.624 21.9134 21.4718 19.9452 23.0301C19.7958 23.1485 19.6995 23.3214 19.6776 23.5108C19.6557 23.7002 19.71 23.8905 19.8284 24.0399C19.9468 24.1893 20.1197 24.2855 20.3091 24.3074C20.4985 24.3294 20.6888 24.2751 20.8382 24.1567C22.5523 22.7999 24.6744 22.0617 26.8605 22.0617C29.0466 22.0617 31.1686 22.7999 32.8827 24.1567C32.9567 24.2153 33.0415 24.2589 33.1322 24.2847C33.223 24.3106 33.318 24.3183 33.4118 24.3075C33.5056 24.2966 33.5963 24.2674 33.6788 24.2215C33.7613 24.1756 33.8339 24.1139 33.8925 24.0399C33.9512 23.9659 33.9947 23.8811 34.0205 23.7903C34.0464 23.6996 34.0542 23.6046 34.0433 23.5108C34.0325 23.417 34.0032 23.3263 33.9573 23.2438C33.9114 23.1613 33.8497 23.0887 33.7757 23.0301ZM30.8774 26.2429C29.7099 25.3944 28.3037 24.9374 26.8605 24.9374C25.4172 24.9374 24.011 25.3944 22.8435 26.2429C22.6894 26.3551 22.5861 26.524 22.5565 26.7124C22.5268 26.9007 22.5732 27.0932 22.6854 27.2473C22.7976 27.4015 22.9665 27.5048 23.1549 27.5344C23.3433 27.5641 23.5357 27.5177 23.6899 27.4055C24.6112 26.7354 25.7212 26.3744 26.8605 26.3744C27.9997 26.3744 29.1097 26.7354 30.031 27.4055C30.1074 27.461 30.1939 27.501 30.2857 27.5231C30.3775 27.5453 30.4727 27.5491 30.566 27.5344C30.6593 27.5197 30.7488 27.4868 30.8293 27.4376C30.9099 27.3883 30.9799 27.3237 31.0355 27.2473C31.0911 27.171 31.1311 27.0845 31.1532 26.9927C31.1753 26.9009 31.1791 26.8056 31.1645 26.7124C31.1498 26.6191 31.1169 26.5296 31.0676 26.4491C31.0184 26.3685 30.9537 26.2984 30.8774 26.2429Z" fill="black"/>
</svg>
