<svg width="53" height="48" viewBox="0 0 53 48" fill="none" xmlns="http://www.w3.org/2000/svg">
<rect x="0.357422" width="52.2857" height="48" rx="6.81081" fill="#FFB55E" fill-opacity="0.2"/>
<path d="M27 19.9062C26.2892 19.9062 25.5944 20.117 25.0034 20.5119C24.4124 20.9068 23.9518 21.4681 23.6798 22.1247C23.4078 22.7814 23.3366 23.504 23.4753 24.2011C23.614 24.8982 23.9562 25.5386 24.4588 26.0412C24.9614 26.5438 25.6018 26.886 26.2989 27.0247C26.996 27.1634 27.7186 27.0922 28.3753 26.8202C29.0319 26.5482 29.5932 26.0876 29.9881 25.4966C30.383 24.9056 30.5938 24.2108 30.5938 23.5C30.5938 22.5469 30.2151 21.6328 29.5412 20.9588C28.8672 20.2849 27.9531 19.9062 27 19.9062ZM27 25.6562C26.5735 25.6562 26.1566 25.5298 25.8021 25.2929C25.4475 25.0559 25.1711 24.7192 25.0079 24.3252C24.8447 23.9312 24.802 23.4976 24.8852 23.0793C24.9684 22.6611 25.1737 22.2769 25.4753 21.9753C25.7769 21.6737 26.1611 21.4684 26.5793 21.3852C26.9976 21.302 27.4312 21.3447 27.8252 21.5079C28.2192 21.6711 28.5559 21.9475 28.7929 22.3021C29.0298 22.6566 29.1562 23.0735 29.1562 23.5C29.1562 24.0719 28.9291 24.6203 28.5247 25.0247C28.1203 25.4291 27.5719 25.6562 27 25.6562ZM37.0625 17.0312H16.9375C16.7469 17.0312 16.5641 17.107 16.4293 17.2418C16.2945 17.3766 16.2188 17.5594 16.2188 17.75V29.25C16.2188 29.4406 16.2945 29.6234 16.4293 29.7582C16.5641 29.893 16.7469 29.9688 16.9375 29.9688H37.0625C37.2531 29.9688 37.4359 29.893 37.5707 29.7582C37.7055 29.6234 37.7812 29.4406 37.7812 29.25V17.75C37.7812 17.5594 37.7055 17.3766 37.5707 17.2418C37.4359 17.107 37.2531 17.0312 37.0625 17.0312ZM32.8982 28.5312H21.1018C20.8604 27.7151 20.4188 26.9723 19.817 26.3705C19.2152 25.7687 18.4724 25.3271 17.6562 25.0857V21.9143C18.4724 21.6729 19.2152 21.2313 19.817 20.6295C20.4188 20.0277 20.8604 19.2849 21.1018 18.4688H32.8982C33.1396 19.2849 33.5812 20.0277 34.183 20.6295C34.7848 21.2313 35.5276 21.6729 36.3438 21.9143V25.0857C35.5276 25.3271 34.7848 25.7687 34.183 26.3705C33.5812 26.9723 33.1396 27.7151 32.8982 28.5312ZM36.3438 20.3887C35.4816 20.018 34.7945 19.3309 34.4238 18.4688H36.3438V20.3887ZM19.5762 18.4688C19.2055 19.3309 18.5184 20.018 17.6562 20.3887V18.4688H19.5762ZM17.6562 26.6113C18.5184 26.982 19.2055 27.6691 19.5762 28.5312H17.6562V26.6113ZM34.4238 28.5312C34.7945 27.6691 35.4816 26.982 36.3438 26.6113V28.5312H34.4238Z" fill="black"/>
</svg>
