<svg width="20" height="20" viewBox="0 0 20 20" fill="none" xmlns="http://www.w3.org/2000/svg">
<g id="Computing">
<path id="Vector" d="M16.25 3.12402H3.75C3.25272 3.12402 2.77581 3.32157 2.42417 3.6732C2.07254 4.02483 1.875 4.50174 1.875 4.99902V13.749C1.875 14.2463 2.07254 14.7232 2.42417 15.0748C2.77581 15.4265 3.25272 15.624 3.75 15.624H9.375V16.874H7.5C7.33424 16.874 7.17527 16.9399 7.05806 17.0571C6.94085 17.1743 6.875 17.3333 6.875 17.499C6.875 17.6648 6.94085 17.8238 7.05806 17.941C7.17527 18.0582 7.33424 18.124 7.5 18.124H12.5C12.6658 18.124 12.8247 18.0582 12.9419 17.941C13.0592 17.8238 13.125 17.6648 13.125 17.499C13.125 17.3333 13.0592 17.1743 12.9419 17.0571C12.8247 16.9399 12.6658 16.874 12.5 16.874H10.625V15.624H16.25C16.7473 15.624 17.2242 15.4265 17.5758 15.0748C17.9275 14.7232 18.125 14.2463 18.125 13.749V4.99902C18.125 4.50174 17.9275 4.02483 17.5758 3.6732C17.2242 3.32157 16.7473 3.12402 16.25 3.12402ZM3.75 4.37402H16.25C16.4158 4.37402 16.5747 4.43987 16.6919 4.55708C16.8092 4.67429 16.875 4.83326 16.875 4.99902V11.249H3.125V4.99902C3.125 4.83326 3.19085 4.67429 3.30806 4.55708C3.42527 4.43987 3.58424 4.37402 3.75 4.37402ZM16.25 14.374H3.75C3.58424 14.374 3.42527 14.3082 3.30806 14.191C3.19085 14.0738 3.125 13.9148 3.125 13.749V12.499H16.875V13.749C16.875 13.9148 16.8092 14.0738 16.6919 14.191C16.5747 14.3082 16.4158 14.374 16.25 14.374Z" fill="black"/>
</g>
</svg>
