<svg width="20" height="20" viewBox="0 0 20 20" fill="none" xmlns="http://www.w3.org/2000/svg">
<g id="copy" clip-path="url(#clip0_12305_29081)">
<path id="Icon" d="M4.16699 12.5013H3.33366C2.89163 12.5013 2.46771 12.3257 2.15515 12.0131C1.84259 11.7006 1.66699 11.2767 1.66699 10.8346V3.33464C1.66699 2.89261 1.84259 2.46868 2.15515 2.15612C2.46771 1.84356 2.89163 1.66797 3.33366 1.66797H10.8337C11.2757 1.66797 11.6996 1.84356 12.0122 2.15612C12.3247 2.46868 12.5003 2.89261 12.5003 3.33464V4.16797M9.16699 7.5013H16.667C17.5875 7.5013 18.3337 8.24749 18.3337 9.16797V16.668C18.3337 17.5884 17.5875 18.3346 16.667 18.3346H9.16699C8.24652 18.3346 7.50033 17.5884 7.50033 16.668V9.16797C7.50033 8.24749 8.24652 7.5013 9.16699 7.5013Z" stroke="#667085" stroke-width="2" stroke-linecap="round" stroke-linejoin="round"/>
</g>
<defs>
<clipPath id="clip0_12305_29081">
<rect width="20" height="20" fill="white"/>
</clipPath>
</defs>
</svg>
