<svg width="25" height="24" viewBox="0 0 25 24" fill="none" xmlns="http://www.w3.org/2000/svg">
<path d="M11 4.5H14C14 4.10218 13.842 3.72064 13.5607 3.43934C13.2794 3.15804 12.8978 3 12.5 3C12.1022 3 11.7206 3.15804 11.4393 3.43934C11.158 3.72064 11 4.10218 11 4.5ZM9.5 4.5C9.5 3.70435 9.81607 2.94129 10.3787 2.37868C10.9413 1.81607 11.7044 1.5 12.5 1.5C13.2956 1.5 14.0587 1.81607 14.6213 2.37868C15.1839 2.94129 15.5 3.70435 15.5 4.5H21.5C21.6989 4.5 21.8897 4.57902 22.0303 4.71967C22.171 4.86032 22.25 5.05109 22.25 5.25C22.25 5.44891 22.171 5.63968 22.0303 5.78033C21.8897 5.92098 21.6989 6 21.5 6H20.654L18.8465 19.257C18.7239 20.1554 18.28 20.979 17.5968 21.5752C16.9137 22.1714 16.0377 22.5 15.131 22.5H9.869C8.96228 22.5 8.08626 22.1714 7.40315 21.5752C6.72004 20.979 6.27609 20.1554 6.1535 19.257L4.346 6H3.5C3.30109 6 3.11032 5.92098 2.96967 5.78033C2.82902 5.63968 2.75 5.44891 2.75 5.25C2.75 5.05109 2.82902 4.86032 2.96967 4.71967C3.11032 4.57902 3.30109 4.5 3.5 4.5H9.5ZM11 9.75C11 9.55109 10.921 9.36032 10.7803 9.21967C10.6397 9.07902 10.4489 9 10.25 9C10.0511 9 9.86032 9.07902 9.71967 9.21967C9.57902 9.36032 9.5 9.55109 9.5 9.75V17.25C9.5 17.4489 9.57902 17.6397 9.71967 17.7803C9.86032 17.921 10.0511 18 10.25 18C10.4489 18 10.6397 17.921 10.7803 17.7803C10.921 17.6397 11 17.4489 11 17.25V9.75ZM14.75 9C14.9489 9 15.1397 9.07902 15.2803 9.21967C15.421 9.36032 15.5 9.55109 15.5 9.75V17.25C15.5 17.4489 15.421 17.6397 15.2803 17.7803C15.1397 17.921 14.9489 18 14.75 18C14.5511 18 14.3603 17.921 14.2197 17.7803C14.079 17.6397 14 17.4489 14 17.25V9.75C14 9.55109 14.079 9.36032 14.2197 9.21967C14.3603 9.07902 14.5511 9 14.75 9ZM7.64 19.0545C7.71361 19.5934 7.97997 20.0875 8.38977 20.4451C8.79956 20.8028 9.32506 20.9999 9.869 21H15.131C15.6752 21.0003 16.2011 20.8033 16.6112 20.4456C17.0213 20.0879 17.2879 19.5937 17.3615 19.0545L19.1405 6H5.8595L7.64 19.0545Z" fill="white"/>
</svg>
