<svg width="34" height="36" viewBox="0 0 34 36" fill="none" xmlns="http://www.w3.org/2000/svg">
<path d="M14.9747 9.05063H18.3593C18.3593 8.6018 18.181 8.17136 17.8636 7.85399C17.5463 7.53662 17.1158 7.35832 16.667 7.35832C16.2182 7.35832 15.7877 7.53662 15.4704 7.85399C15.153 8.17136 14.9747 8.6018 14.9747 9.05063ZM13.2824 9.05063C13.2824 8.15298 13.639 7.29209 14.2737 6.65735C14.9084 6.02261 15.7693 5.66602 16.667 5.66602C17.5646 5.66602 18.4255 6.02261 19.0603 6.65735C19.695 7.29209 20.0516 8.15298 20.0516 9.05063H26.8208C27.0453 9.05063 27.2605 9.13978 27.4192 9.29846C27.5778 9.45715 27.667 9.67237 27.667 9.89678C27.667 10.1212 27.5778 10.3364 27.4192 10.4951C27.2605 10.6538 27.0453 10.7429 26.8208 10.7429H25.8664L23.8271 25.6996C23.6888 26.7131 23.188 27.6423 22.4173 28.315C21.6466 28.9876 20.6583 29.3583 19.6353 29.3583H13.6987C12.6757 29.3583 11.6874 28.9876 10.9167 28.315C10.146 27.6423 9.64514 26.7131 9.50684 25.6996L7.46761 10.7429H6.51315C6.28873 10.7429 6.07351 10.6538 5.91482 10.4951C5.75614 10.3364 5.66699 10.1212 5.66699 9.89678C5.66699 9.67237 5.75614 9.45715 5.91482 9.29846C6.07351 9.13978 6.28873 9.05063 6.51315 9.05063H13.2824ZM14.9747 14.9737C14.9747 14.7493 14.8855 14.5341 14.7269 14.3754C14.5682 14.2167 14.3529 14.1276 14.1285 14.1276C13.9041 14.1276 13.6889 14.2167 13.5302 14.3754C13.3715 14.5341 13.2824 14.7493 13.2824 14.9737V23.4352C13.2824 23.6597 13.3715 23.8749 13.5302 24.0336C13.6889 24.1923 13.9041 24.2814 14.1285 24.2814C14.3529 24.2814 14.5682 24.1923 14.7269 24.0336C14.8855 23.8749 14.9747 23.6597 14.9747 23.4352V14.9737ZM19.2055 14.1276C19.4299 14.1276 19.6451 14.2167 19.8038 14.3754C19.9625 14.5341 20.0516 14.7493 20.0516 14.9737V23.4352C20.0516 23.6597 19.9625 23.8749 19.8038 24.0336C19.6451 24.1923 19.4299 24.2814 19.2055 24.2814C18.981 24.2814 18.7658 24.1923 18.6071 24.0336C18.4484 23.8749 18.3593 23.6597 18.3593 23.4352V14.9737C18.3593 14.7493 18.4484 14.5341 18.6071 14.3754C18.7658 14.2167 18.981 14.1276 19.2055 14.1276ZM11.1839 25.4711C11.267 26.0791 11.5675 26.6365 12.0298 27.04C12.4921 27.4435 13.085 27.6659 13.6987 27.666H19.6353C20.2493 27.6663 20.8425 27.4441 21.3052 27.0406C21.7679 26.637 22.0687 26.0794 22.1518 25.4711L24.1588 10.7429H9.17515L11.1839 25.4711Z" fill="#D01717"/>
<rect x="0.283333" y="0.283333" width="32.7667" height="34.459" rx="5.38333" stroke="#D01717" stroke-width="0.566667"/>
</svg>
