<svg width="34" height="35" viewBox="0 0 34 35" fill="none" xmlns="http://www.w3.org/2000/svg">
<path d="M21.2246 11.2877L23.2249 13.2871M22.5109 9.52634L17.1021 14.9352C16.8226 15.2143 16.632 15.5698 16.5543 15.9571L16.0547 18.458L18.5556 17.9574C18.9428 17.88 19.2979 17.6901 19.5775 17.4106L24.9863 12.0017C25.1488 11.8392 25.2778 11.6462 25.3657 11.4339C25.4537 11.2215 25.499 10.9939 25.499 10.764C25.499 10.5342 25.4537 10.3066 25.3657 10.0942C25.2778 9.88184 25.1488 9.68888 24.9863 9.52634C24.8238 9.36381 24.6308 9.23487 24.4184 9.14691C24.2061 9.05895 23.9785 9.01367 23.7486 9.01367C23.5187 9.01367 23.2911 9.05895 23.0788 9.14691C22.8664 9.23487 22.6734 9.36381 22.5109 9.52634V9.52634Z" stroke="#D01717" stroke-width="1.41667" stroke-linecap="round" stroke-linejoin="round"/>
<path d="M23.611 20.3468V23.1801C23.611 23.6811 23.412 24.1615 23.0578 24.5158C22.7035 24.87 22.2231 25.069 21.7221 25.069H11.3332C10.8323 25.069 10.3518 24.87 9.99758 24.5158C9.64334 24.1615 9.44434 23.6811 9.44434 23.1801V12.7912C9.44434 12.2903 9.64334 11.8098 9.99758 11.4556C10.3518 11.1014 10.8323 10.9023 11.3332 10.9023H14.1666" stroke="#D01717" stroke-width="1.41667" stroke-linecap="round" stroke-linejoin="round"/>
<rect x="0.283333" y="0.797005" width="33.4333" height="33.4333" rx="5.38333" stroke="#D01717" stroke-width="0.566667"/>
</svg>
