<svg width="20" height="20" viewBox="0 0 20 20" fill="none" xmlns="http://www.w3.org/2000/svg">
<path d="M14.168 2.49999C14.3868 2.28112 14.6467 2.1075 14.9326 1.98905C15.2186 1.8706 15.5251 1.80963 15.8346 1.80963C16.1442 1.80963 16.4507 1.8706 16.7366 1.98905C17.0226 2.1075 17.2824 2.28112 17.5013 2.49999C17.7202 2.71886 17.8938 2.97869 18.0122 3.26466C18.1307 3.55063 18.1917 3.85713 18.1917 4.16665C18.1917 4.47618 18.1307 4.78268 18.0122 5.06865C17.8938 5.35461 17.7202 5.61445 17.5013 5.83332L6.2513 17.0833L1.66797 18.3333L2.91797 13.75L14.168 2.49999Z" stroke="#667085" stroke-width="1.66667" stroke-linecap="round" stroke-linejoin="round"/>
</svg>
