<svg width="20" height="20" viewBox="0 0 20 20" fill="none" xmlns="http://www.w3.org/2000/svg">
<g id="Electronics">
<path id="Vector" d="M16.875 4.99937H11.5086L14.1922 2.31656C14.3095 2.19928 14.3753 2.04022 14.3753 1.87437C14.3753 1.70852 14.3095 1.54946 14.1922 1.43218C14.0749 1.31491 13.9159 1.24902 13.75 1.24902C13.5841 1.24902 13.4251 1.31491 13.3078 1.43218L10 4.74078L6.69219 1.43218C6.63412 1.37411 6.56518 1.32805 6.48931 1.29663C6.41344 1.2652 6.33212 1.24902 6.25 1.24902C6.16788 1.24902 6.08656 1.2652 6.01069 1.29663C5.93482 1.32805 5.86588 1.37411 5.80781 1.43218C5.69054 1.54946 5.62465 1.70852 5.62465 1.87437C5.62465 2.04022 5.69054 2.19928 5.80781 2.31656L8.49141 4.99937H3.125C2.79348 4.99937 2.47554 5.13107 2.24112 5.36549C2.0067 5.59991 1.875 5.91785 1.875 6.24937V15.6244C1.875 15.9559 2.0067 16.2738 2.24112 16.5083C2.47554 16.7427 2.79348 16.8744 3.125 16.8744H16.875C17.2065 16.8744 17.5245 16.7427 17.7589 16.5083C17.9933 16.2738 18.125 15.9559 18.125 15.6244V6.24937C18.125 5.91785 17.9933 5.59991 17.7589 5.36549C17.5245 5.13107 17.2065 4.99937 16.875 4.99937ZM16.875 15.6244H3.125V6.24937H16.875V15.6244Z" fill="black"/>
</g>
</svg>
