<svg width="20" height="20" viewBox="0 0 20 20" fill="none" xmlns="http://www.w3.org/2000/svg">
<g id="Fashion">
<path id="Vector" d="M19.3419 4.78184L15.2981 2.57715C15.2065 2.52645 15.1036 2.49959 14.9989 2.49902H12.4989C12.3332 2.49902 12.1742 2.56487 12.057 2.68208C11.9398 2.79929 11.8739 2.95826 11.8739 3.12402C11.8739 3.6213 11.6764 4.09822 11.3248 4.44985C10.9731 4.80148 10.4962 4.99902 9.99893 4.99902C9.50165 4.99902 9.02474 4.80148 8.67311 4.44985C8.32148 4.09822 8.12393 3.6213 8.12393 3.12402C8.12393 2.95826 8.05808 2.79929 7.94087 2.68208C7.82366 2.56487 7.66469 2.49902 7.49893 2.49902H4.99893C4.89396 2.49946 4.79078 2.52633 4.69893 2.57715L0.655962 4.78184C0.36776 4.93414 0.151717 5.19452 0.0552049 5.50588C-0.0413072 5.81724 -0.010411 6.15416 0.141119 6.44277L1.64659 9.31855C1.75605 9.52531 1.92013 9.69808 2.12097 9.81806C2.32181 9.93804 2.55171 10.0006 2.78565 9.99902H4.37393V16.249C4.37393 16.5805 4.50563 16.8985 4.74005 17.1329C4.97447 17.3673 5.29241 17.499 5.62393 17.499H14.3739C14.7055 17.499 15.0234 17.3673 15.2578 17.1329C15.4922 16.8985 15.6239 16.5805 15.6239 16.249V9.99902H17.213C17.4469 10.0006 17.6768 9.93804 17.8777 9.81806C18.0785 9.69808 18.2426 9.52531 18.3521 9.31855L19.8575 6.44277C20.009 6.15407 20.0398 5.81707 19.9431 5.5057C19.8464 5.19433 19.6302 4.93401 19.3419 4.78184ZM2.78565 8.74902C2.7741 8.74957 2.76274 8.74597 2.75362 8.73887L1.25596 5.87871L4.37393 4.17715V8.74902H2.78565ZM14.3739 16.249H5.62393V3.74902H6.93643C7.08063 4.45461 7.46411 5.08875 8.022 5.54416C8.5799 5.99958 9.27797 6.24832 9.99815 6.24832C10.7183 6.24832 11.4164 5.99958 11.9743 5.54416C12.5322 5.08875 12.9157 4.45461 13.0599 3.74902H14.3739V16.249ZM17.245 8.73808C17.2407 8.74198 17.2356 8.74496 17.2301 8.74684C17.2246 8.74872 17.2188 8.74946 17.213 8.74902H15.6239V4.17715L18.7427 5.87871L17.245 8.73808Z" fill="black"/>
</g>
</svg>
