<svg width="24" height="24" viewBox="0 0 24 24" fill="none" xmlns="http://www.w3.org/2000/svg">
<path d="M21.75 8.25L2.25 8.25C1.83579 8.25 1.5 8.58579 1.5 9L1.5 19.5C1.5 19.9142 1.83579 20.25 2.25 20.25H21.75C22.1642 20.25 22.5 19.9142 22.5 19.5V9C22.5 8.58579 22.1642 8.25 21.75 8.25Z" stroke="#243853" stroke-width="1.5" stroke-linejoin="round"/>
<path d="M21 6H3M19.5 3.75H4.5" stroke="#243853" stroke-width="1.5" stroke-linecap="round" stroke-linejoin="round"/>
<path d="M12 10.5C9.92893 10.5 8.25 12.1789 8.25 14.25C8.25 16.3211 9.92893 18 12 18C14.0711 18 15.75 16.3211 15.75 14.25C15.75 12.1789 14.0711 10.5 12 10.5Z" stroke="#243853" stroke-width="1.5" stroke-linecap="round" stroke-linejoin="round"/>
<path d="M1.5 16.5C2.49456 16.5 3.44839 16.8951 4.15165 17.5983C4.85491 18.3016 5.25 19.2554 5.25 20.25M22.5 16.5C22.0075 16.5 21.5199 16.597 21.0649 16.7855C20.61 16.9739 20.1966 17.2501 19.8483 17.5983C19.5001 17.9466 19.2239 18.36 19.0355 18.8149C18.847 19.2699 18.75 19.7575 18.75 20.25M1.5 12C2.49456 12 3.44839 11.6049 4.15165 10.9017C4.85491 10.1984 5.25 9.24456 5.25 8.25M22.5 12C22.0075 12 21.5199 11.903 21.0649 11.7145C20.61 11.5261 20.1966 11.2499 19.8483 10.9017C19.5001 10.5534 19.2239 10.14 19.0355 9.68506C18.847 9.23009 18.75 8.74246 18.75 8.25" stroke="#243853" stroke-width="1.5" stroke-linecap="round" stroke-linejoin="round"/>
</svg>
