<svg width="20" height="20" viewBox="0 0 20 20" fill="none" xmlns="http://www.w3.org/2000/svg">
<g id="Games">
<path id="Vector" d="M13.749 8.74902H11.874C11.7082 8.74902 11.5492 8.68318 11.432 8.56597C11.3148 8.44875 11.249 8.28978 11.249 8.12402C11.249 7.95826 11.3148 7.79929 11.432 7.68208C11.5492 7.56487 11.7082 7.49902 11.874 7.49902H13.749C13.9147 7.49902 14.0737 7.56487 14.1909 7.68208C14.3081 7.79929 14.374 7.95826 14.374 8.12402C14.374 8.28978 14.3081 8.44875 14.1909 8.56597C14.0737 8.68318 13.9147 8.74902 13.749 8.74902ZM8.12396 7.49902H7.49896V6.87402C7.49896 6.70826 7.43311 6.54929 7.3159 6.43208C7.19869 6.31487 7.03972 6.24902 6.87396 6.24902C6.7082 6.24902 6.54923 6.31487 6.43202 6.43208C6.31481 6.54929 6.24896 6.70826 6.24896 6.87402V7.49902H5.62396C5.4582 7.49902 5.29923 7.56487 5.18202 7.68208C5.06481 7.79929 4.99896 7.95826 4.99896 8.12402C4.99896 8.28978 5.06481 8.44875 5.18202 8.56597C5.29923 8.68318 5.4582 8.74902 5.62396 8.74902H6.24896V9.37402C6.24896 9.53978 6.31481 9.69875 6.43202 9.81597C6.54923 9.93318 6.7082 9.99902 6.87396 9.99902C7.03972 9.99902 7.19869 9.93318 7.3159 9.81597C7.43311 9.69875 7.49896 9.53978 7.49896 9.37402V8.74902H8.12396C8.28972 8.74902 8.44869 8.68318 8.5659 8.56597C8.68311 8.44875 8.74896 8.28978 8.74896 8.12402C8.74896 7.95826 8.68311 7.79929 8.5659 7.68208C8.44869 7.56487 8.28972 7.49902 8.12396 7.49902ZM18.8646 15.6748C18.629 16.0112 18.3227 16.2919 17.9671 16.4972C17.6114 16.7025 17.2152 16.8275 16.8061 16.8633C16.397 16.8991 15.9851 16.8449 15.5992 16.7045C15.2133 16.5641 14.8628 16.3409 14.5724 16.0506C14.563 16.0412 14.5536 16.0318 14.5451 16.0217L11.4427 12.499H8.55208L5.45287 16.0217L5.42552 16.0506C4.89756 16.5774 4.18231 16.8735 3.43646 16.874C3.02586 16.8739 2.62028 16.7838 2.2482 16.6102C1.87612 16.4366 1.54657 16.1836 1.2827 15.869C1.01883 15.5544 0.827031 15.1859 0.720787 14.7893C0.614543 14.3927 0.596426 13.9776 0.66771 13.5732C0.667334 13.5696 0.667334 13.5659 0.66771 13.5623L1.94662 6.99277C2.13695 5.90923 2.70307 4.92744 3.54549 4.21989C4.38791 3.51235 5.45274 3.12434 6.55287 3.12402H13.4365C14.5333 3.12577 15.5948 3.51157 16.4368 4.21443C17.2788 4.9173 17.8481 5.89284 18.0458 6.97168C18.0458 6.97637 18.0458 6.98105 18.0458 6.98574L19.3247 13.5615C19.3251 13.5652 19.3251 13.5688 19.3247 13.5725C19.3909 13.9359 19.3843 14.3089 19.3054 14.6697C19.2264 15.0306 19.0765 15.3722 18.8646 15.6748ZM13.4365 11.249C14.3481 11.249 15.2225 10.8869 15.8671 10.2422C16.5118 9.59755 16.874 8.72321 16.874 7.81152C16.874 6.89984 16.5118 6.0255 15.8671 5.38084C15.2225 4.73619 14.3481 4.37402 13.4365 4.37402H6.55287C5.7458 4.37475 4.96484 4.66007 4.34738 5.17978C3.72992 5.6995 3.31552 6.42032 3.17708 7.21543V7.22559L1.8974 13.7951C1.84083 14.1208 1.88902 14.4561 2.03504 14.7526C2.18105 15.0492 2.41736 15.2918 2.70999 15.4456C3.00261 15.5994 3.33647 15.6564 3.66354 15.6084C3.99062 15.5605 4.29405 15.41 4.53021 15.1787L7.80521 11.4607C7.86385 11.3942 7.93598 11.3409 8.0168 11.3044C8.09762 11.2679 8.18528 11.249 8.27396 11.249H13.4365ZM18.1005 13.7951L17.4177 10.2795C16.9978 10.9576 16.4117 11.5174 15.715 11.9058C15.0184 12.2942 14.2341 12.4984 13.4365 12.499H13.1083L15.4677 15.1795C15.6456 15.3525 15.862 15.4809 16.0991 15.5541C16.3362 15.6273 16.5873 15.6432 16.8318 15.6006C17.239 15.5287 17.6012 15.2983 17.8389 14.9599C18.0765 14.6214 18.1703 14.2026 18.0997 13.7951H18.1005Z" fill="black"/>
</g>
</svg>
