<svg width="20" height="20" viewBox="0 0 20 20" fill="none" xmlns="http://www.w3.org/2000/svg">
<g id="Health">
<path id="Vector" d="M14.375 7.56152V6.87402C14.375 6.21098 14.1116 5.5751 13.6428 5.10626C13.1739 4.63742 12.538 4.37402 11.875 4.37402H10.625V2.49902H13.125C13.2908 2.49902 13.4497 2.56487 13.5669 2.68208C13.6842 2.79929 13.75 2.95826 13.75 3.12402C13.75 3.28978 13.8158 3.44875 13.9331 3.56596C14.0503 3.68318 14.2092 3.74902 14.375 3.74902C14.5408 3.74902 14.6997 3.68318 14.8169 3.56596C14.9342 3.44875 15 3.28978 15 3.12402C15 2.62674 14.8025 2.14983 14.4508 1.7982C14.0992 1.44657 13.6223 1.24902 13.125 1.24902H8.125C7.95924 1.24902 7.80027 1.31487 7.68306 1.43208C7.56585 1.54929 7.5 1.70826 7.5 1.87402C7.5 2.03978 7.56585 2.19875 7.68306 2.31597C7.80027 2.43318 7.95924 2.49902 8.125 2.49902H9.375V4.37402H8.125C7.46196 4.37402 6.82607 4.63742 6.35723 5.10626C5.88839 5.5751 5.625 6.21098 5.625 6.87402V7.56152C4.91962 7.70656 4.28581 8.09035 3.83041 8.64821C3.37502 9.20607 3.12588 9.90389 3.125 10.624V16.874C3.125 17.2055 3.2567 17.5235 3.49112 17.7579C3.72554 17.9923 4.04348 18.124 4.375 18.124H15.625C15.9565 18.124 16.2745 17.9923 16.5089 17.7579C16.7433 17.5235 16.875 17.2055 16.875 16.874V10.624C16.8741 9.90389 16.625 9.20607 16.1696 8.64821C15.7142 8.09035 15.0804 7.70656 14.375 7.56152ZM8.125 5.62402H11.875C12.2065 5.62402 12.5245 5.75572 12.7589 5.99014C12.9933 6.22456 13.125 6.5425 13.125 6.87402V7.49902H6.875V6.87402C6.875 6.5425 7.0067 6.22456 7.24112 5.99014C7.47554 5.75572 7.79348 5.62402 8.125 5.62402ZM15.625 16.874H4.375V10.624C4.375 10.1267 4.57254 9.64983 4.92417 9.2982C5.27581 8.94657 5.75272 8.74902 6.25 8.74902H13.75C14.2473 8.74902 14.7242 8.94657 15.0758 9.2982C15.4275 9.64983 15.625 10.1267 15.625 10.624V16.874Z" fill="black"/>
</g>
</svg>
