   <svg
                    xmlns="http://www.w3.org/2000/svg"
                    width="11"
                    height="9"
                    viewBox="0 0 11 9"
                    fill="none"
                  >
                    <mask
                      id="mask0_11527_21475"
                      style="mask-type: luminance"
                      maskUnits="userSpaceOnUse"
                      x="0"
                      y="0"
                      width="8"
                      height="9"
                    >
                      <path
                        fill-rule="evenodd"
                        clip-rule="evenodd"
                        d="M0 0.5H7.75014V8.25067H0V0.5Z"
                        fill="white"
                      />
                    </mask>
                    <g mask="url(#mask0_11527_21475)">
                      <path
                        fill-rule="evenodd"
                        clip-rule="evenodd"
                        d="M2.42355 1.25067C2.20405 1.25067 2.06255 1.25067 2.03805 1.25167C1.66905 1.26717 1.32855 1.42367 1.08305 1.69167C0.854054 1.94217 0.736054 2.26217 0.751554 2.59417C0.751554 4.04067 0.752054 6.21167 0.755554 6.33067C0.812554 7.02317 1.46155 7.55267 2.20455 7.49567C3.57955 7.49767 5.61655 7.50217 5.71205 7.49867C6.07955 7.48367 6.42055 7.32767 6.66605 7.06017C6.89555 6.81067 7.01355 6.49067 6.99905 6.16017C6.99855 6.15467 6.99855 6.14917 6.99855 6.14367C6.99905 4.71367 6.99905 2.54417 6.99555 2.42767C6.93905 1.73167 6.28705 1.19567 5.54005 1.25417C4.50705 1.25267 3.09755 1.25067 2.42355 1.25067ZM2.07305 8.25067C1.01605 8.25117 0.0940535 7.44117 0.0070535 6.37867C0.0055535 6.35817 0.000553505 6.29567 0.0020535 2.61117C-0.0219465 2.09567 0.165053 1.58367 0.530053 1.18517C0.911054 0.769173 1.43655 0.526673 2.01005 0.502173C2.07955 0.497173 4.48355 0.503173 5.51305 0.505173C6.63805 0.426173 7.65355 1.26117 7.74405 2.38167C7.74805 2.43617 7.74955 3.69867 7.74855 6.13617C7.76955 6.66417 7.58155 7.17267 7.21855 7.56767C6.83705 7.98317 6.31105 8.22467 5.73805 8.24817C5.66805 8.25317 3.26305 8.24667 2.23205 8.24467C2.17905 8.24867 2.12605 8.25067 2.07305 8.25067Z"
                        fill="#9D9B9B"
                      />
                    </g>
                    <path
                      fill-rule="evenodd"
                      clip-rule="evenodd"
                      d="M9.40894 7.17466C9.18344 7.17466 8.96094 7.09716 8.77744 6.94666L7.13694 5.59866C6.97694 5.46716 6.95394 5.23066 7.08544 5.07066C7.21644 4.91116 7.45294 4.88716 7.61294 5.01916L9.25294 6.36716C9.36344 6.45716 9.47444 6.42016 9.51744 6.39916C9.56044 6.37916 9.65994 6.31666 9.65994 6.17466L9.66594 2.50016C9.66644 2.35816 9.56644 2.29566 9.52344 2.27516C9.48094 2.25516 9.36844 2.21766 9.25894 2.30766L7.61244 3.65516C7.45144 3.78666 7.21594 3.76316 7.08494 3.60216C6.95344 3.44216 6.97744 3.20616 7.13744 3.07516L8.78394 1.72716C9.08594 1.47966 9.49244 1.43116 9.84494 1.59766C10.1974 1.76516 10.4164 2.11116 10.4159 2.50116L10.4099 6.17566C10.4094 6.56566 10.1899 6.91166 9.83794 7.07766C9.69994 7.14316 9.55394 7.17466 9.40894 7.17466Z"
                      fill="#9D9B9B"
                    />
                  </svg>