<svg width="20" height="20" viewBox="0 0 20 20" fill="none" xmlns="http://www.w3.org/2000/svg">
<g id="map-pin" clip-path="url(#clip0_12305_23587)">
<g id="Icon">
<path d="M17.5 8.33203C17.5 14.1654 10 19.1654 10 19.1654C10 19.1654 2.5 14.1654 2.5 8.33203C2.5 6.34291 3.29018 4.43525 4.6967 3.02873C6.10322 1.62221 8.01088 0.832031 10 0.832031C11.9891 0.832031 13.8968 1.62221 15.3033 3.02873C16.7098 4.43525 17.5 6.34291 17.5 8.33203Z" stroke="#667085" stroke-width="1.67" stroke-linecap="round" stroke-linejoin="round"/>
<path d="M10 10.832C11.3807 10.832 12.5 9.71274 12.5 8.33203C12.5 6.95132 11.3807 5.83203 10 5.83203C8.61929 5.83203 7.5 6.95132 7.5 8.33203C7.5 9.71274 8.61929 10.832 10 10.832Z" stroke="#667085" stroke-width="1.67" stroke-linecap="round" stroke-linejoin="round"/>
</g>
</g>
<defs>
<clipPath id="clip0_12305_23587">
<rect width="20" height="20" fill="white"/>
</clipPath>
</defs>
</svg>
