<svg xmlns="http://www.w3.org/2000/svg" width="18" height="18" viewBox="0 0 10 10" fill="none">
    <path fill-rule="evenodd" clip-rule="evenodd"
        d="M2.59691 1.41585C2.79789 1.05059 3.01652 0.806414 3.34094 0.677287C3.93545 0.440897 6.06464 0.440897 6.65868 0.677334C6.98293 0.806392 7.20164 1.05052 7.40277 1.41571L7.62888 1.84929C7.63406 1.85788 7.63881 1.86543 7.64308 1.87193L7.66228 1.89819C7.7653 2.01044 7.9377 2.07825 8.0515 2.07825C9.12751 2.07825 10 2.95055 10 4.02625V6.92375C10 8.29586 8.88711 9.40875 7.515 9.40875H2.485C1.11255 9.40875 0 8.29602 0 6.92375V4.02625C0 2.95055 0.872489 2.07825 1.9485 2.07825C2.06189 2.07825 2.23454 2.01034 2.33772 1.89819C2.33978 1.89594 2.34247 1.8926 2.34572 1.88817L2.37144 1.84873L2.59691 1.41585ZM6.74583 1.77754C6.62085 1.55062 6.5079 1.42454 6.38132 1.37417L6.32166 1.35433C5.80709 1.20889 4.01721 1.2155 3.61818 1.37417C3.49167 1.42452 3.37884 1.55053 3.25401 1.7774L3.06158 2.14945L3.01422 2.23517C2.97468 2.30093 2.93513 2.35644 2.88997 2.40565C2.63674 2.6809 2.26212 2.82825 1.9485 2.82825L1.86645 2.83101C1.24288 2.87318 0.75 3.39236 0.75 4.02625V6.92375C0.75 7.88183 1.52679 8.65875 2.485 8.65875H7.515C8.47289 8.65875 9.25 7.88164 9.25 6.92375V4.02625C9.25 3.3648 8.71333 2.82825 8.0515 2.82825L7.96444 2.82461C7.67017 2.8004 7.33964 2.65583 7.10972 2.40531C7.06516 2.35676 7.02583 2.30164 6.98653 2.23644C6.98089 2.22708 6.97388 2.21477 6.96583 2.20019L6.90778 2.09132L6.74583 1.77754Z"
        fill="#969090" />
    <path
        d="M7.75255 3.25C8.02869 3.25 8.25255 3.47386 8.25255 3.75C8.25255 4.00642 8.05953 4.21775 7.81086 4.24664L7.75255 4.25C7.4719 4.25 7.24805 4.02614 7.24805 3.75C7.24805 3.49358 7.44107 3.28225 7.68974 3.25336L7.75255 3.25Z"
        fill="#969090" />
    <path fill-rule="evenodd" clip-rule="evenodd"
        d="M3.03516 5.56216C3.03516 4.47705 3.91455 3.59766 4.99966 3.59766C6.08476 3.59766 6.96416 4.47705 6.96416 5.56216C6.96416 6.64726 6.08476 7.52666 4.99966 7.52666C3.91455 7.52666 3.03516 6.64726 3.03516 5.56216ZM6.21416 5.56216C6.21416 4.89126 5.67055 4.34766 4.99966 4.34766C4.32876 4.34766 3.78516 4.89126 3.78516 5.56216C3.78516 6.23305 4.32876 6.77666 4.99966 6.77666C5.67055 6.77666 6.21416 6.23305 6.21416 5.56216Z"
        fill="#969090" />
</svg>