<svg width="20" height="20" viewBox="0 0 20 20" fill="none" xmlns="http://www.w3.org/2000/svg">
<g id="Phone">
<path id="Vector" d="M13.75 1.24902H6.25C5.75272 1.24902 5.27581 1.44657 4.92417 1.7982C4.57254 2.14983 4.375 2.62674 4.375 3.12402V16.874C4.375 17.3713 4.57254 17.8482 4.92417 18.1998C5.27581 18.5515 5.75272 18.749 6.25 18.749H13.75C14.2473 18.749 14.7242 18.5515 15.0758 18.1998C15.4275 17.8482 15.625 17.3713 15.625 16.874V3.12402C15.625 2.62674 15.4275 2.14983 15.0758 1.7982C14.7242 1.44657 14.2473 1.24902 13.75 1.24902ZM5.625 4.99902H14.375V14.999H5.625V4.99902ZM6.25 2.49902H13.75C13.9158 2.49902 14.0747 2.56487 14.1919 2.68208C14.3092 2.79929 14.375 2.95826 14.375 3.12402V3.74902H5.625V3.12402C5.625 2.95826 5.69085 2.79929 5.80806 2.68208C5.92527 2.56487 6.08424 2.49902 6.25 2.49902ZM13.75 17.499H6.25C6.08424 17.499 5.92527 17.4332 5.80806 17.316C5.69085 17.1988 5.625 17.0398 5.625 16.874V16.249H14.375V16.874C14.375 17.0398 14.3092 17.1988 14.1919 17.316C14.0747 17.4332 13.9158 17.499 13.75 17.499Z" fill="black"/>
</g>
</svg>
