<svg width="53" height="48" viewBox="0 0 53 48" fill="none" xmlns="http://www.w3.org/2000/svg">
<rect x="0.357422" width="52.2857" height="48" rx="6.81081" fill="#6C6CE4" fill-opacity="0.1"/>
<path d="M35.924 14.577C35.7432 14.3963 35.5176 14.2671 35.2703 14.2027C35.023 14.1383 34.763 14.1409 34.517 14.2104H34.5036L17.259 19.4429C16.9782 19.5236 16.7288 19.6879 16.5438 19.914C16.3588 20.14 16.2471 20.4171 16.2235 20.7082C16.1998 20.9993 16.2655 21.2908 16.4116 21.5437C16.5578 21.7965 16.7775 21.9989 17.0415 22.1238L24.7339 25.767L28.3771 33.4594C28.4921 33.7058 28.6752 33.9141 28.9048 34.0597C29.1344 34.2054 29.4008 34.2823 29.6727 34.2815C29.714 34.2815 29.7553 34.2797 29.7966 34.2761C30.0868 34.2526 30.3627 34.141 30.5876 33.9561C30.8124 33.7713 30.9753 33.5221 31.0545 33.242L36.2834 15.9974C36.2834 15.9929 36.2834 15.9884 36.2834 15.9839C36.3537 15.7386 36.3576 15.479 36.2944 15.2317C36.2312 14.9845 36.1034 14.7585 35.924 14.577ZM29.6807 32.8305L29.6763 32.8431L26.14 25.378L30.3842 21.1329C30.5133 20.997 30.5842 20.816 30.5818 20.6286C30.5794 20.4412 30.5039 20.2621 30.3714 20.1296C30.2388 19.997 30.0598 19.9215 29.8723 19.9191C29.6849 19.9167 29.504 19.9876 29.3681 20.1167L25.123 24.3609L17.657 20.8247H17.6695L34.907 15.594L29.6807 32.8305Z" fill="black"/>
</svg>
