<svg width="20" height="20" viewBox="0 0 20 20" fill="none" xmlns="http://www.w3.org/2000/svg">
<g id="shopping-bag-02">
<path id="Vector" d="M2.55397 12.6604L2.85834 10.9343C3.21807 8.89402 3.39794 7.87395 4.11022 7.26998C4.82251 6.66602 5.8457 6.66602 7.89205 6.66602H12.1132C14.1595 6.66602 15.1827 6.66602 15.895 7.26998C16.6073 7.87395 16.7871 8.89402 17.1469 10.9343L17.4513 12.6604C17.949 15.4836 18.1979 16.8952 17.4315 17.8223C16.6651 18.7494 15.2492 18.7493 12.4175 18.7493H7.58769C4.75599 18.7493 3.34014 18.7494 2.57371 17.8223C1.80729 16.8952 2.05619 15.4836 2.55397 12.6604Z" stroke="#667085" stroke-width="1.5"/>
<path id="Vector_2" d="M6.25 6.66602L6.38985 4.98783C6.54632 3.11023 8.11589 1.66602 10 1.66602C11.8841 1.66602 13.4537 3.11023 13.6102 4.98783L13.75 6.66602" stroke="#667085" stroke-width="1.5"/>
<path id="Vector_3" d="M12.5 9.16602C12.3917 10.3436 11.3047 11.2493 10 11.2493C8.69525 11.2493 7.60835 10.3436 7.5 9.16602" stroke="#667085" stroke-width="1.5" stroke-linecap="round"/>
</g>
</svg>
