<svg width="20" height="20" viewBox="0 0 20 20" fill="none" xmlns="http://www.w3.org/2000/svg">
<g id="Sporting">
<path id="Vector" d="M12.5 3.12402C12.5 2.62957 12.3534 2.14622 12.0787 1.7351C11.804 1.32398 11.4136 1.00354 10.9568 0.814326C10.4999 0.625107 9.99727 0.575598 9.51232 0.672061C9.02737 0.768524 8.58191 1.00663 8.23228 1.35626C7.88265 1.70589 7.64455 2.15135 7.54808 2.6363C7.45162 3.12125 7.50113 3.62392 7.69035 4.08073C7.87957 4.53755 8.2 4.92799 8.61112 5.2027C9.02225 5.4774 9.50559 5.62402 10 5.62402C10.6631 5.62402 11.299 5.36063 11.7678 4.89179C12.2367 4.42295 12.5 3.78707 12.5 3.12402ZM10 4.37402C9.75282 4.37402 9.51115 4.30071 9.30558 4.16336C9.10002 4.02601 8.93981 3.83079 8.8452 3.60238C8.75059 3.37397 8.72583 3.12264 8.77407 2.88016C8.8223 2.63769 8.94135 2.41496 9.11616 2.24014C9.29098 2.06533 9.51371 1.94627 9.75618 1.89804C9.99866 1.84981 10.25 1.87457 10.4784 1.96918C10.7068 2.06378 10.902 2.224 11.0394 2.42956C11.1767 2.63512 11.25 2.8768 11.25 3.12402C11.25 3.45555 11.1184 3.77349 10.8839 4.00791C10.6495 4.24233 10.3316 4.37402 10 4.37402ZM18.086 6.85137C18.0148 6.50134 17.8237 6.18714 17.5455 5.96305C17.2674 5.73897 16.9197 5.61905 16.5625 5.62402H3.43755C3.08136 5.62401 2.73586 5.7457 2.4583 5.96892C2.18073 6.19214 1.98777 6.50349 1.91137 6.85138C1.83497 7.19928 1.87973 7.56284 2.03822 7.88181C2.19672 8.20079 2.45944 8.45604 2.78286 8.60528H2.79302L6.75786 10.3514L5.11724 16.5795C4.94557 16.9576 4.93115 17.3885 5.07715 17.7773C5.22315 18.166 5.51761 18.4809 5.89575 18.6525C6.27389 18.8242 6.70474 18.8386 7.09351 18.6926C7.48228 18.5466 7.79713 18.2522 7.9688 17.874L10 14.3686L12.0313 17.874C12.2118 18.236 12.5257 18.514 12.9069 18.6493C13.2881 18.7846 13.707 18.7668 14.0754 18.5996C14.4437 18.4324 14.7329 18.1289 14.882 17.7529C15.0312 17.3768 15.0287 16.9576 14.875 16.5834L13.2344 10.3553L17.1993 8.60918H17.2094C17.538 8.46494 17.8057 8.21008 17.9658 7.88892C18.126 7.56776 18.1685 7.20063 18.086 6.85137ZM16.6954 7.46856L12.2477 9.42637C12.1115 9.48636 12.0013 9.59297 11.9367 9.72701C11.8721 9.86105 11.8574 10.0137 11.8954 10.1576L13.6821 16.9522C13.6912 16.9885 13.704 17.0239 13.7204 17.0576C13.7466 17.1137 13.7556 17.1763 13.7462 17.2375C13.7368 17.2986 13.7094 17.3556 13.6676 17.4012C13.6257 17.4469 13.5713 17.479 13.5111 17.4936C13.451 17.5083 13.3878 17.5047 13.3297 17.4834C13.252 17.4549 13.1888 17.3967 13.154 17.3217C13.146 17.3048 13.1372 17.2884 13.1274 17.2725L10.5407 12.8115C10.4857 12.7168 10.4069 12.6382 10.312 12.5835C10.2171 12.5289 10.1095 12.5001 10 12.5001C9.89055 12.5001 9.78298 12.5289 9.6881 12.5835C9.59322 12.6382 9.51436 12.7168 9.45942 12.8115L6.87505 17.2686C6.86527 17.2844 6.8564 17.3009 6.84849 17.3178C6.81362 17.3928 6.7504 17.451 6.6727 17.4795C6.61459 17.5008 6.55146 17.5044 6.49132 17.4897C6.43117 17.4751 6.37673 17.443 6.33489 17.3973C6.29304 17.3517 6.26569 17.2947 6.25629 17.2335C6.24688 17.1724 6.25586 17.1098 6.28208 17.0537C6.29842 17.02 6.31125 16.9846 6.32036 16.9482L8.10473 10.1553C8.14266 10.0114 8.12801 9.85871 8.06343 9.72467C7.99884 9.59062 7.88855 9.48402 7.75239 9.42402L3.30474 7.46856C3.24089 7.43809 3.18927 7.38687 3.15832 7.32326C3.12737 7.25965 3.11891 7.18743 3.13433 7.11839C3.14976 7.04935 3.18814 6.98759 3.24322 6.9432C3.2983 6.89881 3.36681 6.87442 3.43755 6.87402H16.5625C16.6335 6.8739 16.7024 6.89791 16.7578 6.94211C16.8133 6.98631 16.8521 7.04808 16.8678 7.11725C16.8836 7.18642 16.8753 7.25889 16.8444 7.32273C16.8134 7.38658 16.7617 7.438 16.6977 7.46856H16.6954Z" fill="black"/>
</g>
</svg>
