<svg width="20" height="20" viewBox="0 0 20 20" fill="none" xmlns="http://www.w3.org/2000/svg">
<g id="Supermarket">
<path id="Vector" d="M18.125 7.49902C18.1253 7.44091 18.1174 7.38305 18.1016 7.32715L16.9805 3.40527C16.9051 3.14505 16.7476 2.91618 16.5315 2.75285C16.3153 2.58951 16.0522 2.50047 15.7812 2.49902H4.21875C3.94784 2.50047 3.68467 2.58951 3.46853 2.75285C3.25239 2.91618 3.09488 3.14505 3.01953 3.40527L1.89922 7.32715C1.88308 7.38301 1.87493 7.44088 1.875 7.49902V8.74902C1.875 9.23416 1.98795 9.71264 2.20492 10.1466C2.42188 10.5805 2.73689 10.9579 3.125 11.249V16.249C3.125 16.5805 3.2567 16.8985 3.49112 17.1329C3.72554 17.3673 4.04348 17.499 4.375 17.499H15.625C15.9565 17.499 16.2745 17.3673 16.5089 17.1329C16.7433 16.8985 16.875 16.5805 16.875 16.249V11.249C17.2631 10.9579 17.5781 10.5805 17.7951 10.1466C18.012 9.71264 18.125 9.23416 18.125 8.74902V7.49902ZM4.21875 3.74902H15.7812L16.6734 6.87402H3.32891L4.21875 3.74902ZM8.125 8.12402H11.875V8.74902C11.875 9.2463 11.6775 9.72322 11.3258 10.0748C10.9742 10.4265 10.4973 10.624 10 10.624C9.50272 10.624 9.02581 10.4265 8.67418 10.0748C8.32254 9.72322 8.125 9.2463 8.125 8.74902V8.12402ZM6.875 8.12402V8.74902C6.875 9.2463 6.67746 9.72322 6.32583 10.0748C5.9742 10.4265 5.49728 10.624 5 10.624C4.50272 10.624 4.02581 10.4265 3.67418 10.0748C3.32254 9.72322 3.125 9.2463 3.125 8.74902V8.12402H6.875ZM15.625 16.249H4.375V11.8115C4.58075 11.853 4.79011 11.8739 5 11.874C5.48514 11.874 5.96362 11.7611 6.39754 11.5441C6.83147 11.3271 7.20892 11.0121 7.5 10.624C7.79109 11.0121 8.16854 11.3271 8.60246 11.5441C9.03638 11.7611 9.51486 11.874 10 11.874C10.4851 11.874 10.9636 11.7611 11.3975 11.5441C11.8315 11.3271 12.2089 11.0121 12.5 10.624C12.7911 11.0121 13.1685 11.3271 13.6025 11.5441C14.0364 11.7611 14.5149 11.874 15 11.874C15.2099 11.8739 15.4192 11.853 15.625 11.8115V16.249ZM15 10.624C14.5027 10.624 14.0258 10.4265 13.6742 10.0748C13.3225 9.72322 13.125 9.2463 13.125 8.74902V8.12402H16.875V8.74902C16.875 9.2463 16.6775 9.72322 16.3258 10.0748C15.9742 10.4265 15.4973 10.624 15 10.624Z" fill="black"/>
</g>
</svg>
