<svg width="18" height="17" viewBox="0 0 18 17" fill="none" xmlns="http://www.w3.org/2000/svg">
<path d="M14.4929 6.70703C14.4929 6.70703 14.0856 11.4777 13.8494 13.4872C13.7369 14.447 13.1091 15.0094 12.0809 15.0271C10.1241 15.0604 8.16511 15.0625 6.20911 15.0236C5.21986 15.0044 4.60261 14.4349 4.49236 13.4922C4.25461 11.4649 3.84961 6.70703 3.84961 6.70703" stroke="#FF0000" stroke-width="1.5" stroke-linecap="round" stroke-linejoin="round"/>
<path d="M15.531 4.42057H2.8125" stroke="#FF0000" stroke-width="1.5" stroke-linecap="round" stroke-linejoin="round"/>
<path d="M13.0809 4.42059C12.4922 4.42059 11.9852 4.02747 11.8697 3.48276L11.6874 2.62143C11.5749 2.22405 11.1939 1.94922 10.7597 1.94922H7.58492C7.15067 1.94922 6.76967 2.22405 6.65717 2.62143L6.47492 3.48276C6.35942 4.02747 5.85242 4.42059 5.26367 4.42059" stroke="#FF0000" stroke-width="1.5" stroke-linecap="round" stroke-linejoin="round"/>
</svg>
