<svg width="16" height="16" viewBox="0 0 16 16" fill="none" xmlns="http://www.w3.org/2000/svg">
<g clip-path="url(#clip0_12026_31592)">
<path d="M8.00065 1.33337C4.31865 1.33337 1.33398 4.31804 1.33398 8.00004C1.33398 11.682 4.31865 14.6667 8.00065 14.6667C11.6827 14.6667 14.6673 11.682 14.6673 8.00004C14.6673 4.31804 11.6827 1.33337 8.00065 1.33337Z" stroke="black" stroke-width="1.2" stroke-linecap="round" stroke-linejoin="round"/>
<path d="M2.84766 12.2307C2.84766 12.2307 4.33366 10.3333 8.00032 10.3333C11.667 10.3333 13.1537 12.2307 13.1537 12.2307M8.00032 8C8.53076 8 9.03946 7.78929 9.41454 7.41421C9.78961 7.03914 10.0003 6.53043 10.0003 6C10.0003 5.46957 9.78961 4.96086 9.41454 4.58579C9.03946 4.21071 8.53076 4 8.00032 4C7.46989 4 6.96118 4.21071 6.58611 4.58579C6.21104 4.96086 6.00032 5.46957 6.00032 6C6.00032 6.53043 6.21104 7.03914 6.58611 7.41421C6.96118 7.78929 7.46989 8 8.00032 8V8Z" stroke="black" stroke-width="1.2" stroke-linecap="round" stroke-linejoin="round"/>
</g>
<defs>
<clipPath id="clip0_12026_31592">
<rect width="16" height="16" fill="white"/>
</clipPath>
</defs>
</svg>
