<svg width="53" height="49" viewBox="0 0 53 49" fill="none" xmlns="http://www.w3.org/2000/svg">
<rect x="0.5" y="0.5" width="52.2857" height="48" rx="6.81081" fill="#05C699" fill-opacity="0.2"/>
<path d="M29.236 11.4514C29.0312 11.284 28.7953 11.1589 28.5418 11.0834C28.2883 11.0078 28.0224 10.9833 27.7594 11.0112C27.4964 11.0391 27.2415 11.1189 27.0095 11.2459C26.7776 11.373 26.5731 11.5448 26.408 11.7514L20.616 19.0074H23.176L27.97 12.9994L29.51 14.2574L25.65 19.0074H28.226L31.06 15.5194L34.496 18.3254L33.9 19.0074H34.5C35.0964 19.0068 35.6896 19.0951 36.26 19.2694C36.4779 18.8607 36.5471 18.389 36.456 17.9348C36.3648 17.4807 36.1188 17.0723 35.76 16.7794L29.236 11.4514ZM16.5 20.0074C16.5 19.7422 16.6054 19.4878 16.7929 19.3003C16.9804 19.1128 17.2348 19.0074 17.5 19.0074H18.616L20.206 17.0074H17.5C16.7044 17.0074 15.9413 17.3235 15.3787 17.8861C14.8161 18.4487 14.5 19.2117 14.5 20.0074V32.0074C14.5 33.3335 15.0268 34.6052 15.9645 35.5429C16.9021 36.4806 18.1739 37.0074 19.5 37.0074H34.5C35.5609 37.0074 36.5783 36.586 37.3284 35.8358C38.0786 35.0857 38.5 34.0683 38.5 33.0074V25.0074C38.5 23.9465 38.0786 22.9291 37.3284 22.179C36.5783 21.4288 35.5609 21.0074 34.5 21.0074H17.5C17.2348 21.0074 16.9804 20.902 16.7929 20.7145C16.6054 20.527 16.5 20.2726 16.5 20.0074ZM31.5 29.0074H33.5C33.7652 29.0074 34.0196 29.1128 34.2071 29.3003C34.3946 29.4878 34.5 29.7422 34.5 30.0074C34.5 30.2726 34.3946 30.527 34.2071 30.7145C34.0196 30.902 33.7652 31.0074 33.5 31.0074H31.5C31.2348 31.0074 30.9804 30.902 30.7929 30.7145C30.6054 30.527 30.5 30.2726 30.5 30.0074C30.5 29.7422 30.6054 29.4878 30.7929 29.3003C30.9804 29.1128 31.2348 29.0074 31.5 29.0074Z" fill="black"/>
</svg>
