<svg width="40" height="40" viewBox="0 0 40 40" fill="none" xmlns="http://www.w3.org/2000/svg">
<path d="M37.332 33.4375L21.082 5.3125C20.8399 4.89453 20.4219 4.6875 20 4.6875C19.5781 4.6875 19.1563 4.89453 18.918 5.3125L2.66798 33.4375C2.18751 34.2734 2.78908 35.3125 3.75001 35.3125H36.25C37.2109 35.3125 37.8125 34.2734 37.332 33.4375ZM18.75 16.25C18.75 16.0781 18.8906 15.9375 19.0625 15.9375H20.9375C21.1094 15.9375 21.25 16.0781 21.25 16.25V23.4375C21.25 23.6094 21.1094 23.75 20.9375 23.75H19.0625C18.8906 23.75 18.75 23.6094 18.75 23.4375V16.25ZM20 30C19.5094 29.99 19.0422 29.788 18.6987 29.4375C18.3553 29.087 18.1629 28.6158 18.1629 28.125C18.1629 27.6342 18.3553 27.163 18.6987 26.8125C19.0422 26.462 19.5094 26.26 20 26.25C20.4907 26.26 20.9578 26.462 21.3013 26.8125C21.6448 27.163 21.8371 27.6342 21.8371 28.125C21.8371 28.6158 21.6448 29.087 21.3013 29.4375C20.9578 29.788 20.4907 29.99 20 30Z" fill="#FF8473"/>
</svg>
